<svg width="575" height="137" viewBox="0 0 575 137" fill="none" xmlns="http://www.w3.org/2000/svg">
<path d="M49.2881 68.6738C49.2881 71.8164 46.6966 74.3638 43.5001 74.3638C40.3034 74.3638 37.7119 71.8164 37.7119 68.6738C37.7119 65.5312 40.3034 62.9822 43.5001 62.9822C46.6966 62.9822 49.2881 65.5312 49.2881 68.6738Z" fill="#45D91E"/>
<path fill-rule="evenodd" clip-rule="evenodd" d="M0 2.11336C0 1.53472 0.898269 0.443949 1.33979 0.385752C3.31413 0.128024 5.18698 0 6.95784 0C20.4091 0 27.8902 7.38766 27.8902 21.2983V31.383L45.6192 21.137C47.8966 19.8235 50.4383 19.165 52.9801 19.165C55.5217 19.165 58.0635 19.8235 60.3409 21.137L98.5997 43.2335C103.154 45.864 105.96 50.7259 105.96 55.9869V100.178C105.96 105.439 103.154 110.301 98.5997 112.932L60.3409 135.028C58.0635 136.343 55.5217 137 52.9801 137C50.4383 137 47.8966 136.343 45.6192 135.028L7.36069 112.932C2.80569 110.301 0 105.439 0 100.178V2.11336ZM55.4901 43.9684C36.5366 43.9684 21.1715 59.3374 21.1715 78.2978C21.1715 97.2567 36.5366 112.627 55.4901 112.627C64.5266 112.627 72.7473 109.134 78.876 103.422C79.1782 103.141 79.4912 102.286 78.9999 101.796C75.0118 97.8103 56.8049 79.6114 56.3204 79.1275C55.776 78.5822 55.7894 77.9869 56.3201 77.4349C60.3834 73.2148 78.0024 54.9194 78.5359 54.384C79.1397 53.7804 78.7974 53.097 78.5359 52.8592C72.445 47.3338 64.3605 43.9684 55.4901 43.9684Z" fill="#45D91E"/>
<path fill-rule="evenodd" clip-rule="evenodd" d="M203.922 69.6847C205.915 68.4476 207.544 66.7283 208.652 64.6964C210.214 61.9329 210.998 58.8186 210.928 55.666C211.138 52.796 210.608 49.9194 209.384 47.2989C208.161 44.6784 206.283 42.3971 203.922 40.6645C198.004 37.2259 191.159 35.5964 184.278 35.9905H159V105.945H187.888C196.339 105.945 202.549 104.328 206.81 100.85C209.018 98.7548 210.729 96.2174 211.826 93.4157C212.925 90.6122 213.382 87.6093 213.166 84.618C213.238 81.1362 212.245 77.7109 210.313 74.7794C208.77 72.4848 206.538 70.7056 203.922 69.6847ZM175.755 49.5536H183.663C186.302 49.2194 188.972 49.8995 191.102 51.4508C191.855 52.2523 192.428 53.1967 192.79 54.2243C193.149 55.2519 193.288 56.341 193.197 57.4235C193.272 58.4212 193.127 59.4238 192.772 60.3633C192.418 61.3011 191.86 62.1557 191.138 62.869C190.142 63.6705 188.985 64.2624 187.743 64.6066C186.5 64.9508 185.196 65.0423 183.916 64.871H175.755V49.5536ZM193.594 90.4842C192.687 91.2358 191.636 91.8061 190.502 92.1619C189.369 92.5178 188.172 92.6524 186.987 92.5577H175.755V75.9034H187.491C188.626 75.8286 189.762 75.9832 190.832 76.3574C191.901 76.7332 192.879 77.3201 193.702 78.0817C195.062 79.929 195.724 82.1754 195.581 84.4417C195.694 86.6233 194.989 88.7716 193.594 90.4842Z" fill="white"/>
<path fill-rule="evenodd" clip-rule="evenodd" d="M368.842 71.4738H353.531V91.6414C347.321 92.6956 341.254 92.7654 337.172 89.9903C335.162 88.4672 333.533 86.5168 332.413 84.2887C331.292 82.0589 330.711 79.6113 330.709 77.1305C330.385 73.0617 330.385 68.973 330.709 64.9042C330.844 62.2404 331.599 59.6399 332.92 57.3037C334.239 54.9658 336.089 52.9506 338.329 51.4125C344.179 48.1103 352.087 49.2692 357.612 50.3234C361.223 51.0251 368.445 53.1684 368.445 53.1684V39.5022C363.532 37.2824 358.271 35.8807 352.881 35.3552C343.564 34.2312 331.431 35.3552 323.343 42.3821C320.248 45.252 317.765 48.6873 316.036 52.4917C314.306 56.2961 313.366 60.3948 313.269 64.5533C312.88 69.229 312.88 73.9296 313.269 78.607C313.37 83.0965 314.515 87.5044 316.615 91.5017C318.716 95.499 321.719 98.9825 325.4 101.689C334.465 107.91 347.971 107.276 355.157 106.152C359.894 105.251 364.494 103.763 368.842 101.726V86.8277V71.4738Z" fill="white"/>
<path fill-rule="evenodd" clip-rule="evenodd" d="M499.701 36.4828L482.439 67.6812L465.178 36.4828H447.122V105.241H463.409V63.0787L482.367 94.7011L502.264 61.6038V105.241H518.623L517.647 36.4828H499.701Z" fill="white"/>
<path fill-rule="evenodd" clip-rule="evenodd" d="M399.454 36.5507L372.913 105.239H390.968L396.386 90.3776H418.051L423.828 105.239H442.245L416.535 36.5507H399.454ZM401.224 76.3938L407.687 56.7532L414.332 76.3239L401.224 76.3938Z" fill="white"/>
<path fill-rule="evenodd" clip-rule="evenodd" d="M544.559 90.2363L544.667 76.6748H572.762V63.534H544.667L544.559 51.5188H574.206V36.5157H527.371V63.0418V105.239H575V90.2363H544.559Z" fill="white"/>
<path fill-rule="evenodd" clip-rule="evenodd" d="M264.329 91.402C258.841 92.4545 250.933 93.5802 245.083 90.3478C242.857 88.8596 241.014 86.8959 239.693 84.6046C238.372 82.315 237.608 79.7593 237.463 77.1372C237.283 75.0986 237.21 72.9553 237.174 70.9184C237.138 68.8799 237.174 66.7366 237.463 64.6997C237.586 62.0526 238.339 59.4686 239.66 57.1524C240.983 54.8362 242.838 52.8492 245.083 51.3477C250.933 48.0804 258.841 49.2393 264.329 50.2935C267.941 50.9619 275.163 53.1036 275.163 53.1036V39.577C270.253 37.3356 264.993 35.9106 259.599 35.3619C250.282 34.2728 238.149 35.2206 230.06 42.0013C226.962 44.8097 224.474 48.1934 222.744 51.9529C221.014 55.7125 220.076 59.7729 219.985 63.8916C219.77 66.2095 219.696 68.4575 219.696 70.6374C219.696 72.8156 219.696 75.0637 219.985 77.3832C220.076 81.5002 221.014 85.5607 222.744 89.3202C224.474 93.0797 226.962 96.4634 230.06 99.2719C238.149 106.299 250.282 107.142 259.599 106.053C264.988 105.549 270.252 104.159 275.163 101.942V88.4506C275.163 88.4506 267.941 90.7336 264.329 91.402Z" fill="white"/>
<path d="M297.414 106.542C302.101 106.542 305.9 102.845 305.9 98.2843C305.9 93.725 302.101 90.0287 297.414 90.0287C292.726 90.0287 288.927 93.725 288.927 98.2843C288.927 102.845 292.726 106.542 297.414 106.542Z" fill="white"/>
</svg>
