<svg width="76" height="76" viewBox="0 0 76 76" fill="none" xmlns="http://www.w3.org/2000/svg">
<g id="Group 2">
<circle id="Ellipse 1" cx="38" cy="38" r="38" fill="black"/>
<path id="Vector" d="M18 50.0821C21.0351 36.677 27.4303 24.538 36.2591 14.5872C36.5007 14.3147 36.8064 13.9784 37.1762 13.5783C37.8485 12.8508 38.9861 12.8033 39.7171 13.4722C39.7542 13.5061 39.7897 13.5414 39.8236 13.5783C40.1979 13.9833 40.5072 14.3234 40.7513 14.5986C49.5746 24.5473 55.9662 36.6821 59 50.0821C54.1866 51.0917 49.2439 51.7529 44.2003 52.0381L39.5053 61.3816C39.2277 61.934 38.5525 62.1579 37.9973 61.8817C37.7799 61.7734 37.6035 61.5981 37.4947 61.3816L32.7998 52.0381C27.7561 51.7529 22.8135 51.0917 18 50.0821ZM38.4999 43.2522C42.2243 43.2522 45.2433 40.2479 45.2433 36.5421C45.2433 32.8362 42.2243 29.832 38.4999 29.832C34.7758 29.832 31.7566 32.8362 31.7566 36.5421C31.7566 40.2479 34.7758 43.2522 38.4999 43.2522Z" fill="#E5443E"/>
</g>
</svg>
