<svg width="1201" height="265" viewBox="0 0 1201 265" fill="none" xmlns="http://www.w3.org/2000/svg">
<path d="M0 173.841C9.99371 129.796 31.0511 89.9105 60.1214 57.215C60.917 56.3198 61.9236 55.2149 63.1411 53.9001C65.3548 51.5098 69.1006 51.3537 71.5075 53.5516C71.6296 53.6628 71.7466 53.779 71.8583 53.9C73.0906 55.2307 74.109 56.3483 74.9128 57.2527C103.965 89.9411 125.011 129.813 135 173.841C119.151 177.158 102.876 179.331 86.2693 180.268L70.8103 210.968C69.8962 212.783 67.6729 213.519 65.8448 212.611C65.1291 212.256 64.5481 211.679 64.1899 210.968L48.7309 180.268C32.1237 179.331 15.8494 177.158 0 173.841ZM67.4997 151.4C79.7629 151.4 89.7035 141.529 89.7035 129.353C89.7035 117.176 79.7629 107.305 67.4997 107.305C55.2373 107.305 45.2962 117.176 45.2962 129.353C45.2962 141.529 55.2373 151.4 67.4997 151.4Z" fill="#E5443E"/>
<path d="M246.375 59.5455H295.523L329.33 141.932H331.034L364.841 59.5455H413.989V205H375.352V120.909H374.216L341.83 203.864H318.534L286.148 120.341H285.011V205H246.375V59.5455ZM463.669 206.705C456.709 206.705 450.554 205.568 445.203 203.295C439.9 200.975 435.733 197.472 432.703 192.784C429.673 188.097 428.158 182.131 428.158 174.886C428.158 168.92 429.176 163.83 431.212 159.616C433.248 155.355 436.089 151.875 439.734 149.176C443.38 146.477 447.618 144.418 452.447 142.997C457.324 141.577 462.58 140.653 468.214 140.227C474.322 139.754 479.223 139.186 482.916 138.523C486.657 137.812 489.356 136.842 491.013 135.611C492.67 134.332 493.499 132.652 493.499 130.568V130.284C493.499 127.443 492.41 125.265 490.232 123.75C488.054 122.235 485.26 121.477 481.851 121.477C478.11 121.477 475.056 122.306 472.689 123.963C470.369 125.573 468.972 128.059 468.499 131.42H432.419C432.893 124.792 435 118.684 438.74 113.097C442.528 107.462 448.044 102.964 455.288 99.6023C462.533 96.1932 471.576 94.4886 482.419 94.4886C490.232 94.4886 497.239 95.4119 503.442 97.2585C509.644 99.0578 514.924 101.591 519.28 104.858C523.636 108.078 526.95 111.866 529.223 116.222C531.543 120.53 532.703 125.218 532.703 130.284V205H496.055V189.659H495.203C493.025 193.731 490.374 197.022 487.249 199.531C484.171 202.041 480.643 203.864 476.666 205C472.736 206.136 468.404 206.705 463.669 206.705ZM476.453 181.989C479.436 181.989 482.23 181.373 484.834 180.142C487.485 178.911 489.64 177.135 491.297 174.815C492.954 172.495 493.783 169.678 493.783 166.364V157.273C492.741 157.699 491.628 158.101 490.445 158.48C489.308 158.859 488.077 159.214 486.751 159.545C485.473 159.877 484.1 160.185 482.632 160.469C481.212 160.753 479.72 161.013 478.158 161.25C475.127 161.723 472.642 162.505 470.7 163.594C468.806 164.635 467.386 165.938 466.439 167.5C465.539 169.015 465.089 170.72 465.089 172.614C465.089 175.644 466.155 177.964 468.286 179.574C470.416 181.184 473.139 181.989 476.453 181.989ZM551.435 205V95.9091H589.504V116.648H590.64C592.629 108.977 595.777 103.366 600.086 99.8153C604.442 96.2642 609.532 94.4886 615.356 94.4886C617.06 94.4886 618.741 94.6307 620.398 94.9148C622.103 95.1515 623.737 95.5066 625.299 95.9801V129.432C623.358 128.769 620.967 128.272 618.126 127.94C615.285 127.609 612.846 127.443 610.81 127.443C606.975 127.443 603.519 128.319 600.441 130.071C597.411 131.776 595.02 134.19 593.268 137.315C591.516 140.393 590.64 144.015 590.64 148.182V205H551.435ZM737.87 131.42H701.79C701.601 129.195 700.82 127.277 699.447 125.668C698.074 124.058 696.298 122.827 694.12 121.974C691.989 121.075 689.622 120.625 687.018 120.625C683.656 120.625 680.768 121.241 678.353 122.472C675.938 123.703 674.754 125.455 674.802 127.727C674.754 129.337 675.441 130.829 676.862 132.202C678.329 133.575 681.147 134.64 685.313 135.398L707.472 139.375C718.647 141.411 726.956 144.844 732.401 149.673C737.894 154.455 740.664 160.871 740.711 168.92C740.664 176.686 738.344 183.433 733.751 189.162C729.205 194.844 722.979 199.247 715.072 202.372C707.212 205.45 698.239 206.989 688.154 206.989C671.487 206.989 658.443 203.58 649.021 196.761C639.646 189.943 634.414 180.947 633.325 169.773H672.245C672.766 173.229 674.47 175.904 677.359 177.798C680.294 179.645 683.987 180.568 688.438 180.568C692.037 180.568 694.996 179.953 697.316 178.722C699.683 177.491 700.891 175.739 700.938 173.466C700.891 171.383 699.849 169.725 697.813 168.494C695.825 167.263 692.7 166.269 688.438 165.511L669.12 162.102C657.993 160.161 649.66 156.468 644.12 151.023C638.58 145.578 635.834 138.57 635.881 130C635.834 122.424 637.823 116.009 641.847 110.753C645.919 105.45 651.719 101.425 659.248 98.679C666.824 95.8854 675.796 94.4886 686.165 94.4886C701.933 94.4886 714.362 97.7557 723.452 104.29C732.591 110.824 737.397 119.867 737.87 131.42ZM878.744 59.5455V205H861.698L782.437 90.7955H781.016V205H763.403V59.5455H780.448L859.994 174.034H861.414V59.5455H878.744ZM957.455 207.273C946.943 207.273 937.876 204.953 930.253 200.312C922.677 195.625 916.83 189.091 912.71 180.71C908.638 172.282 906.602 162.481 906.602 151.307C906.602 140.133 908.638 130.284 912.71 121.761C916.83 113.191 922.559 106.515 929.898 101.733C937.284 96.9034 945.902 94.4886 955.75 94.4886C961.432 94.4886 967.043 95.4356 972.582 97.3295C978.122 99.2235 983.165 102.301 987.71 106.562C992.256 110.777 995.878 116.364 998.577 123.324C1001.28 130.284 1002.62 138.854 1002.62 149.034V156.136H918.534V141.648H985.58C985.58 135.492 984.348 130 981.886 125.17C979.472 120.341 976.015 116.529 971.517 113.736C967.066 110.942 961.811 109.545 955.75 109.545C949.074 109.545 943.297 111.203 938.42 114.517C933.591 117.784 929.874 122.045 927.27 127.301C924.666 132.557 923.364 138.191 923.364 144.205V153.864C923.364 162.102 924.784 169.086 927.625 174.815C930.513 180.497 934.514 184.83 939.628 187.812C944.741 190.748 950.684 192.216 957.455 192.216C961.858 192.216 965.835 191.6 969.386 190.369C972.985 189.091 976.086 187.197 978.69 184.688C981.295 182.131 983.307 178.958 984.727 175.17L1000.92 179.716C999.216 185.208 996.351 190.038 992.327 194.205C988.302 198.324 983.33 201.544 977.412 203.864C971.493 206.136 964.841 207.273 957.455 207.273ZM1037.69 95.9091L1063.83 140.511L1089.97 95.9091H1109.28L1074.06 150.455L1109.28 205H1089.97L1063.83 162.67L1037.69 205H1018.37L1053.03 150.455L1018.37 95.9091H1037.69ZM1180.64 95.9091V110.114H1124.11V95.9091H1180.64ZM1140.59 69.7727H1157.35V173.75C1157.35 178.485 1158.03 182.036 1159.41 184.403C1160.83 186.723 1162.63 188.286 1164.81 189.091C1167.03 189.848 1169.37 190.227 1171.84 190.227C1173.68 190.227 1175.2 190.133 1176.38 189.943C1177.57 189.706 1178.51 189.517 1179.22 189.375L1182.63 204.432C1181.5 204.858 1179.91 205.284 1177.87 205.71C1175.84 206.184 1173.26 206.42 1170.13 206.42C1165.4 206.42 1160.76 205.402 1156.21 203.366C1151.71 201.33 1147.97 198.229 1144.99 194.062C1142.05 189.896 1140.59 184.64 1140.59 178.295V69.7727Z" fill="url(#paint0_linear_34_7)"/>
<path d="M186 192L186 74" stroke="#B5B5B5" stroke-width="8" stroke-linecap="round"/>
<defs>
<linearGradient id="paint0_linear_34_7" x1="1109.06" y1="132.5" x2="302.474" y2="132.5" gradientUnits="userSpaceOnUse">
<stop stop-color="#38A169"/>
<stop offset="0.5" stop-color="#D69E2E"/>
<stop offset="1" stop-color="#E53E3E"/>
</linearGradient>
</defs>
</svg>
