<svg width="1405" height="223" viewBox="0 0 1405 223" fill="none" xmlns="http://www.w3.org/2000/svg">
<path d="M0.425781 0.818175H74.1474L124.858 124.398H127.414L178.125 0.818175H251.846V219H193.892V92.8636H192.187L143.608 217.295H108.664L60.0849 92.0114H58.3803V219H0.425781V0.818175ZM326.367 221.557C315.926 221.557 306.694 219.852 298.668 216.443C290.713 212.963 284.463 207.707 279.918 200.676C275.373 193.645 273.1 184.696 273.1 173.83C273.1 164.881 274.627 157.246 277.681 150.925C280.735 144.533 284.996 139.312 290.465 135.264C295.934 131.216 302.29 128.126 309.534 125.996C316.85 123.865 324.733 122.48 333.185 121.841C342.347 121.131 349.698 120.278 355.238 119.284C360.848 118.219 364.897 116.763 367.382 114.916C369.868 112.999 371.111 110.477 371.111 107.352V106.926C371.111 102.665 369.478 99.3977 366.211 97.125C362.944 94.8523 358.753 93.7159 353.64 93.7159C348.029 93.7159 343.448 94.9588 339.897 97.4446C336.417 99.8594 334.321 103.588 333.611 108.631H279.492C280.202 98.6875 283.363 89.5256 288.973 81.1449C294.655 72.6932 302.929 65.946 313.796 60.9034C324.662 55.7898 338.228 53.233 354.492 53.233C366.211 53.233 376.722 54.6179 386.026 57.3878C395.33 60.0866 403.249 63.8864 409.783 68.7869C416.317 73.6165 421.289 79.2983 424.698 85.8324C428.178 92.2955 429.918 99.3267 429.918 106.926V219H374.946V195.989H373.668C370.401 202.097 366.424 207.033 361.736 210.797C357.12 214.561 351.828 217.295 345.863 219C339.968 220.705 333.469 221.557 326.367 221.557ZM345.543 184.483C350.017 184.483 354.208 183.56 358.114 181.713C362.091 179.866 365.323 177.203 367.809 173.723C370.294 170.243 371.537 166.017 371.537 161.045V147.409C369.975 148.048 368.306 148.652 366.53 149.22C364.826 149.788 362.979 150.321 360.99 150.818C359.073 151.315 357.013 151.777 354.811 152.203C352.681 152.629 350.444 153.02 348.1 153.375C343.554 154.085 339.826 155.257 336.914 156.891C334.073 158.453 331.942 160.406 330.522 162.75C329.172 165.023 328.498 167.58 328.498 170.42C328.498 174.966 330.096 178.446 333.292 180.861C336.488 183.276 340.571 184.483 345.543 184.483ZM458.016 219V55.3636H515.119V86.4716H516.823C519.806 74.9659 524.529 66.5497 530.992 61.223C537.526 55.8963 545.161 53.233 553.897 53.233C556.454 53.233 558.975 53.446 561.461 53.8722C564.018 54.2273 566.468 54.7599 568.812 55.4702V105.648C565.9 104.653 562.313 103.908 558.052 103.411C553.79 102.913 550.133 102.665 547.079 102.665C541.326 102.665 536.141 103.979 531.525 106.607C526.979 109.163 523.393 112.786 520.765 117.473C518.137 122.089 516.823 127.523 516.823 133.773V219H458.016ZM737.668 108.631H683.549C683.265 105.293 682.093 102.416 680.033 100.001C677.974 97.5866 675.31 95.7401 672.043 94.4616C668.847 93.1122 665.296 92.4375 661.39 92.4375C656.347 92.4375 652.015 93.3608 648.393 95.2074C644.771 97.054 642.995 99.6818 643.066 103.091C642.995 105.506 644.025 107.743 646.156 109.803C648.357 111.862 652.583 113.46 658.833 114.597L692.072 120.562C708.833 123.616 721.298 128.766 729.465 136.01C737.704 143.183 741.859 152.807 741.93 164.881C741.859 176.528 738.379 186.649 731.489 195.243C724.671 203.766 715.332 210.371 703.471 215.058C691.681 219.675 678.222 221.983 663.094 221.983C638.094 221.983 618.528 216.869 604.394 206.642C590.332 196.415 582.484 182.92 580.85 166.159H639.231C640.012 171.344 642.569 175.357 646.901 178.197C651.305 180.967 656.844 182.352 663.521 182.352C668.918 182.352 673.357 181.429 676.837 179.582C680.388 177.736 682.2 175.108 682.271 171.699C682.2 168.574 680.637 166.088 677.583 164.241C674.6 162.395 669.913 160.903 663.521 159.767L634.543 154.653C617.853 151.741 605.353 146.202 597.043 138.034C588.734 129.866 584.614 119.355 584.685 106.5C584.614 95.1364 587.597 85.5128 593.634 77.6293C599.742 69.6747 608.442 63.6378 619.735 59.5185C631.099 55.3281 644.558 53.233 660.112 53.233C683.762 53.233 702.406 58.1335 716.042 67.9347C729.749 77.7358 736.958 91.3011 737.668 108.631ZM948.979 0.818175V219H923.411L804.518 47.6932H802.388V219H775.967V0.818175H801.536L920.854 172.551H922.984V0.818175H948.979ZM1067.05 222.409C1051.28 222.409 1037.68 218.929 1026.24 211.969C1014.88 204.938 1006.11 195.136 999.929 182.565C993.821 169.923 990.767 155.222 990.767 138.46C990.767 121.699 993.821 106.926 999.929 94.142C1006.11 81.2869 1014.7 71.2727 1025.71 64.0994C1036.79 56.8551 1049.72 53.233 1064.49 53.233C1073.01 53.233 1081.43 54.6534 1089.74 57.4943C1098.05 60.3352 1105.61 64.9517 1112.43 71.3438C1119.25 77.6648 1124.68 86.0455 1128.73 96.4858C1132.78 106.926 1134.8 119.781 1134.8 135.051V145.705H1008.66V123.972H1109.23C1109.23 114.739 1107.39 106.5 1103.69 99.2557C1100.07 92.0114 1094.89 86.294 1088.14 82.1037C1081.46 77.9133 1073.58 75.8182 1064.49 75.8182C1054.47 75.8182 1045.81 78.304 1038.49 83.2756C1031.25 88.1761 1025.67 94.5682 1021.77 102.452C1017.86 110.335 1015.91 118.787 1015.91 127.807V142.295C1015.91 154.653 1018.04 165.129 1022.3 173.723C1026.63 182.246 1032.63 188.744 1040.31 193.219C1047.98 197.622 1056.89 199.824 1067.05 199.824C1073.65 199.824 1079.62 198.901 1084.94 197.054C1090.34 195.136 1094.99 192.295 1098.9 188.531C1102.81 184.696 1105.82 179.937 1107.95 174.256L1132.24 181.074C1129.69 189.312 1125.39 196.557 1119.35 202.807C1113.32 208.986 1105.86 213.815 1096.98 217.295C1088.1 220.705 1078.12 222.409 1067.05 222.409ZM1187.4 55.3636L1226.61 122.267L1265.81 55.3636H1294.79L1241.95 137.182L1294.79 219H1265.81L1226.61 155.506L1187.4 219H1158.42L1210.41 137.182L1158.42 55.3636H1187.4ZM1401.83 55.3636V76.6704H1317.03V55.3636H1401.83ZM1341.74 16.1591H1366.89V172.125C1366.89 179.227 1367.92 184.554 1369.97 188.105C1372.11 191.585 1374.8 193.929 1378.07 195.136C1381.41 196.273 1384.93 196.841 1388.62 196.841C1391.39 196.841 1393.66 196.699 1395.44 196.415C1397.21 196.06 1398.63 195.776 1399.7 195.562L1404.81 218.148C1403.11 218.787 1400.73 219.426 1397.67 220.065C1394.62 220.776 1390.75 221.131 1386.06 221.131C1378.96 221.131 1372 219.604 1365.18 216.55C1358.43 213.496 1352.82 208.844 1348.35 202.594C1343.94 196.344 1341.74 188.46 1341.74 178.943V16.1591Z" fill="url(#paint0_linear_1_3)"/>
<defs>
<linearGradient id="paint0_linear_1_3" x1="1284.56" y1="110" x2="78.8713" y2="110" gradientUnits="userSpaceOnUse">
<stop stop-color="#38A169"/>
<stop offset="0.5" stop-color="#D69E2E"/>
<stop offset="1" stop-color="#E53E3E"/>
</linearGradient>
</defs>
</svg>
