<svg width="74" height="89" viewBox="0 0 74 89" fill="none" xmlns="http://www.w3.org/2000/svg">
<path d="M0 67.3532C5.47803 43.0052 17.0206 20.9567 32.9554 2.8828C33.3916 2.38799 33.9433 1.77718 34.6107 1.05036C35.8241 -0.270984 37.8774 -0.357273 39.1967 0.85771C39.2636 0.919177 39.3277 0.983446 39.389 1.05032C40.0645 1.78592 40.6227 2.40371 41.0633 2.90365C56.9882 20.9737 68.5243 43.0145 74 67.3532C65.3124 69.187 56.3914 70.3879 47.2884 70.9059L38.8145 87.8767C38.3135 88.8802 37.0948 89.2868 36.0927 88.7851C35.7004 88.5885 35.3819 88.27 35.1856 87.8767L26.7118 70.9059C17.6086 70.3879 8.68784 69.187 0 67.3532ZM36.9998 54.9478C43.7219 54.9478 49.1708 49.491 49.1708 42.7602C49.1708 36.029 43.7219 30.5724 36.9998 30.5724C30.2782 30.5724 24.829 36.029 24.829 42.7602C24.829 49.491 30.2782 54.9478 36.9998 54.9478Z" fill="#E5443E"/>
</svg>
