<svg xmlns="http://www.w3.org/2000/svg" xmlns:xlink="http://www.w3.org/1999/xlink" width="500" zoomAndPan="magnify" viewBox="0 0 375 374.999991" height="500" preserveAspectRatio="xMidYMid meet" version="1.0"><defs><clipPath id="65b2638731"><path d="M 128 29.078125 L 370.128906 29.078125 L 370.128906 271 L 128 271 Z M 128 29.078125 " clip-rule="nonzero"/></clipPath><clipPath id="3080ed18c2"><path d="M 112 221 L 201 221 L 201 345.578125 L 112 345.578125 Z M 112 221 " clip-rule="nonzero"/></clipPath><clipPath id="1c324bc27f"><path d="M 180 42 L 208 42 L 208 77 L 180 77 Z M 180 42 " clip-rule="nonzero"/></clipPath><clipPath id="d83f818bbb"><path d="M 175.101562 40.132812 L 206.484375 24.082031 L 232.4375 74.832031 L 201.050781 90.882812 Z M 175.101562 40.132812 " clip-rule="nonzero"/></clipPath><clipPath id="6586bbf428"><path d="M 175.101562 40.132812 L 206.484375 24.082031 L 232.4375 74.832031 L 201.050781 90.882812 Z M 175.101562 40.132812 " clip-rule="nonzero"/></clipPath><clipPath id="f604d01356"><path d="M 175.101562 40.132812 L 206.484375 24.082031 L 232.4375 74.832031 L 201.050781 90.882812 Z M 175.101562 40.132812 " clip-rule="nonzero"/></clipPath><clipPath id="b4510b65c9"><path d="M 198 27 L 220 27 L 220 69 L 198 69 Z M 198 27 " clip-rule="nonzero"/></clipPath><clipPath id="ffa95f8c61"><path d="M 175.101562 40.132812 L 206.484375 24.082031 L 232.4375 74.832031 L 201.050781 90.882812 Z M 175.101562 40.132812 " clip-rule="nonzero"/></clipPath><clipPath id="ef3d14ab5e"><path d="M 175.101562 40.132812 L 206.484375 24.082031 L 232.4375 74.832031 L 201.050781 90.882812 Z M 175.101562 40.132812 " clip-rule="nonzero"/></clipPath><clipPath id="dc8e673e68"><path d="M 175.101562 40.132812 L 206.484375 24.082031 L 232.4375 74.832031 L 201.050781 90.882812 Z M 175.101562 40.132812 " clip-rule="nonzero"/></clipPath><clipPath id="dfaee759eb"><path d="M 216 69 L 226 69 L 226 80 L 216 80 Z M 216 69 " clip-rule="nonzero"/></clipPath><clipPath id="bed2a94b8a"><path d="M 175.101562 40.132812 L 206.484375 24.082031 L 232.4375 74.832031 L 201.050781 90.882812 Z M 175.101562 40.132812 " clip-rule="nonzero"/></clipPath><clipPath id="096c1cfd6d"><path d="M 175.101562 40.132812 L 206.484375 24.082031 L 232.4375 74.832031 L 201.050781 90.882812 Z M 175.101562 40.132812 " clip-rule="nonzero"/></clipPath><clipPath id="167a7f28b8"><path d="M 175.101562 40.132812 L 206.484375 24.082031 L 232.4375 74.832031 L 201.050781 90.882812 Z M 175.101562 40.132812 " clip-rule="nonzero"/></clipPath><clipPath id="3059f9c003"><path d="M 205 76 L 215 76 L 215 86 L 205 86 Z M 205 76 " clip-rule="nonzero"/></clipPath><clipPath id="5f0274eee4"><path d="M 175.101562 40.132812 L 206.484375 24.082031 L 232.4375 74.832031 L 201.050781 90.882812 Z M 175.101562 40.132812 " clip-rule="nonzero"/></clipPath><clipPath id="669f354e0f"><path d="M 175.101562 40.132812 L 206.484375 24.082031 L 232.4375 74.832031 L 201.050781 90.882812 Z M 175.101562 40.132812 " clip-rule="nonzero"/></clipPath><clipPath id="a9cb2f42a2"><path d="M 175.101562 40.132812 L 206.484375 24.082031 L 232.4375 74.832031 L 201.050781 90.882812 Z M 175.101562 40.132812 " clip-rule="nonzero"/></clipPath><clipPath id="3ba0ca2996"><path d="M 276 41 L 294 41 L 294 79 L 276 79 Z M 276 41 " clip-rule="nonzero"/></clipPath><clipPath id="480e589822"><path d="M 287.316406 32.976562 L 319.660156 46.992188 L 296.996094 99.292969 L 264.652344 85.277344 Z M 287.316406 32.976562 " clip-rule="nonzero"/></clipPath><clipPath id="1054f863b0"><path d="M 287.316406 32.976562 L 319.660156 46.992188 L 296.996094 99.292969 L 264.652344 85.277344 Z M 287.316406 32.976562 " clip-rule="nonzero"/></clipPath><clipPath id="c903761a3c"><path d="M 287.316406 32.976562 L 319.660156 46.992188 L 296.996094 99.292969 L 264.652344 85.277344 Z M 287.316406 32.976562 " clip-rule="nonzero"/></clipPath><clipPath id="6d9815cfc4"><path d="M 290 45 L 317 45 L 317 85 L 290 85 Z M 290 45 " clip-rule="nonzero"/></clipPath><clipPath id="3b6abd6ea0"><path d="M 287.316406 32.976562 L 319.660156 46.992188 L 296.996094 99.292969 L 264.652344 85.277344 Z M 287.316406 32.976562 " clip-rule="nonzero"/></clipPath><clipPath id="8c118e6591"><path d="M 287.316406 32.976562 L 319.660156 46.992188 L 296.996094 99.292969 L 264.652344 85.277344 Z M 287.316406 32.976562 " clip-rule="nonzero"/></clipPath><clipPath id="f684fefdf5"><path d="M 287.316406 32.976562 L 319.660156 46.992188 L 296.996094 99.292969 L 264.652344 85.277344 Z M 287.316406 32.976562 " clip-rule="nonzero"/></clipPath><clipPath id="d0a13d9c77"><path d="M 285 85 L 296 85 L 296 95 L 285 95 Z M 285 85 " clip-rule="nonzero"/></clipPath><clipPath id="e8a54593f8"><path d="M 287.316406 32.976562 L 319.660156 46.992188 L 296.996094 99.292969 L 264.652344 85.277344 Z M 287.316406 32.976562 " clip-rule="nonzero"/></clipPath><clipPath id="b3fd2e282f"><path d="M 287.316406 32.976562 L 319.660156 46.992188 L 296.996094 99.292969 L 264.652344 85.277344 Z M 287.316406 32.976562 " clip-rule="nonzero"/></clipPath><clipPath id="14fc413bde"><path d="M 287.316406 32.976562 L 319.660156 46.992188 L 296.996094 99.292969 L 264.652344 85.277344 Z M 287.316406 32.976562 " clip-rule="nonzero"/></clipPath><clipPath id="51d0dc6cae"><path d="M 273 81 L 284 81 L 284 91 L 273 91 Z M 273 81 " clip-rule="nonzero"/></clipPath><clipPath id="9114e7997a"><path d="M 287.316406 32.976562 L 319.660156 46.992188 L 296.996094 99.292969 L 264.652344 85.277344 Z M 287.316406 32.976562 " clip-rule="nonzero"/></clipPath><clipPath id="6bad3cfc1f"><path d="M 287.316406 32.976562 L 319.660156 46.992188 L 296.996094 99.292969 L 264.652344 85.277344 Z M 287.316406 32.976562 " clip-rule="nonzero"/></clipPath><clipPath id="491ef40121"><path d="M 287.316406 32.976562 L 319.660156 46.992188 L 296.996094 99.292969 L 264.652344 85.277344 Z M 287.316406 32.976562 " clip-rule="nonzero"/></clipPath></defs><path fill="#eaa281" d="M 312.246094 167.621094 C 318.039062 161.996094 323.164062 155.816406 327.625 149.089844 C 332.089844 142.363281 335.785156 135.238281 338.714844 127.71875 C 339.167969 126.5625 339.601562 125.296875 339.257812 124.109375 C 338.523438 121.574219 335.117188 121.234375 332.484375 121.429688 C 327.136719 121.839844 308.109375 121.601562 299.433594 124.824219 C 295.027344 120.367188 289.425781 115.914062 282.417969 111.347656 C 275.71875 106.96875 266.304688 104.664062 256.28125 104.542969 C 251.933594 95.386719 243.199219 83.6875 240.730469 79.722656 C 239.269531 77.390625 236.878906 74.738281 234.292969 75.683594 C 233.078125 76.128906 232.28125 77.273438 231.585938 78.363281 C 227.707031 84.449219 224.417969 90.835938 221.71875 97.527344 C 219.015625 104.21875 216.949219 111.097656 215.515625 118.167969 C 213.472656 119.976562 211.640625 121.984375 210.027344 124.183594 C 209.21875 125.289062 208.464844 126.429688 207.757812 127.601562 C 206.550781 128.300781 205.292969 128.902344 203.988281 129.402344 C 199.199219 131.242188 194.039062 131.835938 188.941406 132.429688 C 191.734375 134.691406 194.046875 137.367188 195.875 140.457031 C 193.363281 141.40625 191.203125 142.871094 189.390625 144.851562 C 190.035156 144.746094 190.675781 144.738281 191.320312 144.824219 C 191.964844 144.914062 192.582031 145.09375 193.171875 145.363281 C 193.761719 145.636719 194.300781 145.988281 194.785156 146.421875 C 195.269531 146.855469 195.679688 147.351562 196.015625 147.90625 C 194.492188 150.101562 193.332031 152.476562 192.539062 155.027344 C 191.742188 157.582031 191.351562 160.191406 191.359375 162.863281 C 194.183594 161.039062 197.269531 159.960938 200.617188 159.625 C 201.660156 172.074219 206.785156 184.179688 215.738281 192.9375 C 227.960938 204.898438 245.496094 210.28125 262.597656 210.738281 C 272.304688 210.996094 282.375 209.6875 290.6875 204.6875 C 290.8125 205.855469 290.882812 207.027344 290.898438 208.203125 C 291.34375 207.554688 291.914062 207.050781 292.609375 206.6875 C 293.308594 206.328125 294.046875 206.148438 294.832031 206.160156 C 294.796875 207.40625 294.757812 208.652344 294.71875 209.902344 C 296.816406 208.128906 298.664062 206.132812 300.265625 203.902344 C 301.863281 201.675781 303.167969 199.285156 304.179688 196.734375 C 306.109375 198.152344 307.734375 199.859375 309.054688 201.851562 C 310.375 203.847656 311.308594 206.011719 311.859375 208.339844 C 312.457031 202.925781 314.789062 182.921875 309.878906 177.679688 C 310.566406 175.433594 311.144531 173.160156 311.613281 170.886719 C 311.851562 169.78125 312.0625 168.695312 312.246094 167.621094 Z M 312.246094 167.621094 " fill-opacity="1" fill-rule="nonzero"/><path fill="#eaa281" d="M 98.699219 296.347656 C 88.351562 294.269531 79.960938 289.722656 72.148438 282.542969 C 64.261719 275.296875 57.894531 266.578125 51.582031 257.925781 C 50 260.558594 48.421875 263.191406 46.839844 265.820312 C 41.152344 257.875 36.136719 249.523438 31.800781 240.765625 C 27.460938 232.011719 23.855469 222.964844 20.980469 213.625 C 9.925781 225.828125 4.910156 242.78125 5.445312 259.234375 C 5.980469 275.683594 11.707031 291.664062 19.886719 305.953125 L 15.390625 310.554688 C 26.855469 319.6875 39.457031 326.816406 53.199219 331.933594 C 51.238281 332.914062 49.5625 334.25 48.175781 335.945312 C 51.359375 340.78125 58.667969 339.589844 64.191406 337.804688 C 74.242188 334.554688 84.414062 331.085938 93.496094 325.589844 C 99.921875 321.699219 112.5 313.195312 112.253906 304.464844 C 112.042969 297.441406 104.136719 297.441406 98.699219 296.347656 Z M 98.699219 296.347656 " fill-opacity="1" fill-rule="nonzero"/><g clip-path="url(#65b2638731)"><path stroke-linecap="butt" transform="matrix(0.187374, 0, 0, 0.187167, -0.618327, 5.999853)" fill="none" stroke-linejoin="miter" d="M 1968.47125 632.539659 C 1968.47125 640.69997 1968.283624 648.881151 1967.887525 657.041462 C 1967.470579 665.201772 1966.886855 673.341213 1966.07381 681.480653 C 1965.281612 689.599223 1964.280941 697.717794 1963.071798 705.794623 C 1961.883501 713.871452 1960.486732 721.927411 1958.881489 729.920759 C 1957.297094 737.934978 1955.504226 745.907455 1953.523731 753.838192 C 1951.543237 761.768929 1949.35427 769.637055 1946.977677 777.442569 C 1944.621932 785.268954 1942.057713 793.032728 1939.305869 800.713021 C 1936.554024 808.414184 1933.614554 816.031865 1930.487458 823.586935 C 1927.360362 831.121135 1924.045641 838.592724 1920.543293 845.980832 C 1917.061793 853.368939 1913.392668 860.652695 1909.535916 867.87384 C 1905.679164 875.074114 1901.655634 882.170036 1897.465326 889.182477 C 1893.25417 896.194918 1888.876236 903.103008 1884.35237 909.885875 C 1879.807658 916.668742 1875.096167 923.347257 1870.238744 929.92142 C 1865.381322 936.474713 1860.357121 942.923655 1855.166142 949.226503 C 1849.975163 955.550223 1844.638253 961.727849 1839.155411 967.780254 C 1833.67257 973.832658 1828.043797 979.75984 1822.269093 985.54093 C 1816.49439 991.32202 1810.573755 996.936147 1804.528036 1002.425051 C 1798.46147 1007.913956 1792.290667 1013.256768 1785.973934 1018.432618 C 1779.6572 1023.608467 1773.215382 1028.638224 1766.648481 1033.501018 C 1760.08158 1038.384682 1753.410442 1043.080513 1746.61422 1047.609381 C 1739.817998 1052.15912 1732.91754 1056.521025 1725.912845 1060.736838 C 1718.90815 1064.93178 1711.799219 1068.959759 1704.586051 1072.799906 C 1697.393731 1076.660922 1690.097174 1080.334106 1682.717227 1083.819456 C 1675.316434 1087.304806 1667.853098 1090.623193 1660.306374 1093.753747 C 1652.759649 1096.884301 1645.150382 1099.806152 1637.457726 1102.561039 C 1629.76507 1105.315927 1622.009873 1107.882981 1614.192133 1110.262202 C 1606.374393 1112.620553 1598.494111 1114.811941 1590.572135 1116.794625 C 1582.650159 1118.777309 1574.665641 1120.57216 1566.660275 1122.158307 C 1558.65491 1123.744455 1550.60785 1125.142769 1542.519095 1126.35325 C 1534.43034 1127.54286 1526.341586 1128.544638 1518.211136 1129.337711 C 1510.080687 1130.151655 1501.92939 1130.756896 1493.757246 1131.153433 C 1485.60595 1131.549969 1477.433806 1131.758673 1469.261662 1131.758673 C 1461.110365 1131.758673 1452.938221 1131.549969 1444.766077 1131.153433 C 1436.614781 1130.756896 1428.463484 1130.151655 1420.333035 1129.337711 C 1412.202586 1128.544638 1404.092984 1127.54286 1396.025076 1126.35325 C 1387.936322 1125.142769 1379.889261 1123.744455 1371.883896 1122.158307 C 1363.857683 1120.57216 1355.894012 1118.777309 1347.972036 1116.794625 C 1340.05006 1114.811941 1332.169778 1112.620553 1324.352038 1110.262202 C 1316.534299 1107.882981 1308.779101 1105.315927 1301.086445 1102.561039 C 1293.393789 1099.806152 1285.784522 1096.884301 1278.237798 1093.753747 C 1270.691073 1090.623193 1263.20689 1087.304806 1255.826944 1083.819456 C 1248.446998 1080.334106 1241.15044 1076.660922 1233.937273 1072.799906 C 1226.744952 1068.959759 1219.636021 1064.93178 1212.631326 1060.736838 C 1205.626631 1056.521025 1198.726173 1052.15912 1191.929951 1047.609381 C 1185.133729 1043.080513 1178.462591 1038.384682 1171.89569 1033.501018 C 1165.328789 1028.638224 1158.886971 1023.608467 1152.570238 1018.432618 C 1146.253504 1013.256768 1140.082701 1007.913956 1134.016135 1002.425051 C 1127.970417 996.936147 1122.049782 991.32202 1116.275078 985.54093 C 1110.500374 979.75984 1104.871602 973.832658 1099.38876 967.780254 C 1093.885071 961.727849 1088.548161 955.550223 1083.378029 949.226503 C 1078.18705 942.923655 1073.162849 936.474713 1068.305427 929.92142 C 1063.427157 923.347257 1058.736514 916.668742 1054.191801 909.885875 C 1049.647088 903.103008 1045.290001 896.194918 1041.078845 889.182477 C 1036.888537 882.170036 1032.865007 875.074114 1029.008255 867.87384 C 1025.151504 860.652695 1021.482378 853.368939 1017.98003 845.980832 C 1014.49853 838.592724 1011.183809 831.121135 1008.056713 823.586935 C 1004.929617 816.031865 1001.990147 808.414184 999.238302 800.713021 C 996.486458 793.032728 993.922239 785.268954 991.545647 777.46344 C 989.189901 769.637055 987.000934 761.768929 985.02044 753.838192 C 983.039946 745.907455 981.247077 737.934978 979.641835 729.920759 C 978.05744 721.927411 976.66067 713.871452 975.472374 705.794623 C 974.26323 697.717794 973.262559 689.599223 972.470362 681.480653 C 971.657317 673.341213 971.052745 665.201772 970.656646 657.041462 C 970.260547 648.881151 970.052074 640.69997 970.052074 632.539659 C 970.052074 624.379348 970.260547 616.198167 970.656646 608.037856 C 971.052745 599.877545 971.657317 591.738105 972.470362 583.598664 C 973.262559 575.480094 974.26323 567.382395 975.472374 559.284695 C 976.66067 551.207865 978.05744 543.151906 979.641835 535.158559 C 981.247077 527.14434 983.039946 519.171863 985.02044 511.241126 C 987.000934 503.310389 989.189901 495.442263 991.545647 487.636749 C 993.922239 479.810364 996.486458 472.04659 999.238302 464.366297 C 1001.990147 456.665134 1004.929617 449.047453 1008.056713 441.492382 C 1011.183809 433.958182 1014.49853 426.486593 1017.98003 419.098486 C 1021.482378 411.710378 1025.151504 404.426623 1029.008255 397.205478 C 1032.865007 390.005204 1036.888537 382.909281 1041.078845 375.89684 C 1045.290001 368.884399 1049.647088 361.997181 1054.191801 355.193443 C 1058.736514 348.410576 1063.427157 341.732061 1068.305427 335.157898 C 1073.162849 328.604604 1078.18705 322.155663 1083.378029 315.852814 C 1088.548161 309.529095 1093.885071 303.351469 1099.38876 297.299064 C 1104.871602 291.24666 1110.500374 285.319478 1116.275078 279.538388 C 1122.049782 273.778168 1127.970417 268.143171 1134.016135 262.654266 C 1140.082701 257.165362 1146.253504 251.82255 1152.570238 246.6467 C 1158.886971 241.470851 1165.328789 236.441094 1171.89569 231.5783 C 1178.462591 226.694636 1185.133729 221.998805 1191.929951 217.469937 C 1198.726173 212.920198 1205.626631 208.558293 1212.631326 204.363351 C 1219.636021 200.147538 1226.744952 196.119558 1233.937273 192.279412 C 1241.15044 188.418395 1248.446998 184.745212 1255.826944 181.259862 C 1263.20689 177.774512 1270.691073 174.456125 1278.237798 171.325571 C 1285.784522 168.195017 1293.393789 165.273166 1301.086445 162.518279 C 1308.779101 159.763391 1316.534299 157.196337 1324.352038 154.817116 C 1332.169778 152.458765 1340.05006 150.267377 1347.972036 148.284693 C 1355.894012 146.302009 1363.857683 144.507158 1371.883896 142.92101 C 1379.889261 141.334863 1387.936322 139.936549 1396.025076 138.726068 C 1404.092984 137.536458 1412.202586 136.53468 1420.333035 135.741607 C 1428.463484 134.927662 1436.614781 134.322422 1444.766077 133.925885 C 1452.938221 133.529348 1461.110365 133.320645 1469.261662 133.320645 C 1477.433806 133.320645 1485.60595 133.529348 1493.757246 133.925885 C 1501.92939 134.322422 1510.080687 134.927662 1518.211136 135.741607 C 1526.341586 136.53468 1534.43034 137.536458 1542.519095 138.726068 C 1550.60785 139.936549 1558.65491 141.334863 1566.660275 142.92101 C 1574.665641 144.507158 1582.650159 146.302009 1590.572135 148.284693 C 1598.494111 150.267377 1606.374393 152.458765 1614.192133 154.817116 C 1622.009873 157.196337 1629.76507 159.763391 1637.457726 162.518279 C 1645.150382 165.273166 1652.759649 168.195017 1660.306374 171.325571 C 1667.853098 174.456125 1675.316434 177.774512 1682.717227 181.259862 C 1690.097174 184.745212 1697.393731 188.418395 1704.586051 192.279412 C 1711.799219 196.119558 1718.90815 200.147538 1725.912845 204.363351 C 1732.91754 208.558293 1739.817998 212.920198 1746.61422 217.469937 C 1753.410442 221.998805 1760.08158 226.694636 1766.648481 231.5783 C 1773.215382 236.441094 1779.6572 241.470851 1785.973934 246.6467 C 1792.290667 251.82255 1798.46147 257.165362 1804.528036 262.654266 C 1810.573755 268.143171 1816.49439 273.778168 1822.269093 279.538388 C 1828.043797 285.319478 1833.67257 291.24666 1839.155411 297.299064 C 1844.638253 303.351469 1849.975163 309.529095 1855.166142 315.852814 C 1860.357121 322.155663 1865.381322 328.604604 1870.238744 335.157898 C 1875.096167 341.732061 1879.807658 348.410576 1884.35237 355.193443 C 1888.876236 361.997181 1893.25417 368.884399 1897.465326 375.89684 C 1901.655634 382.909281 1905.679164 390.005204 1909.535916 397.205478 C 1913.392668 404.426623 1917.061793 411.710378 1920.543293 419.098486 C 1924.045641 426.486593 1927.360362 433.958182 1930.487458 441.492382 C 1933.614554 449.047453 1936.554024 456.665134 1939.305869 464.366297 C 1942.057713 472.04659 1944.621932 479.810364 1946.977677 487.636749 C 1949.35427 495.442263 1951.543237 503.310389 1953.523731 511.241126 C 1955.504226 519.171863 1957.297094 527.14434 1958.881489 535.158559 C 1960.486732 543.151906 1961.883501 551.207865 1963.071798 559.284695 C 1964.280941 567.382395 1965.281612 575.480094 1966.07381 583.598664 C 1966.886855 591.738105 1967.470579 599.877545 1967.887525 608.037856 C 1968.283624 616.198167 1968.47125 624.379348 1968.47125 632.539659 Z M 1968.47125 632.539659 " stroke="#ffffff" stroke-width="20" stroke-opacity="1" stroke-miterlimit="10"/></g><path fill="#ffffff" d="M 360.070312 119.402344 C 360.070312 120.332031 360.03125 121.25 359.957031 122.160156 C 359.882812 123.070312 359.773438 123.953125 359.625 124.808594 C 359.480469 125.667969 359.300781 126.480469 359.089844 127.253906 C 358.875 128.023438 358.632812 128.738281 358.363281 129.394531 C 358.09375 130.050781 357.796875 130.636719 357.480469 131.152344 C 357.164062 131.667969 356.828125 132.101562 356.472656 132.457031 C 356.121094 132.8125 355.757812 133.082031 355.378906 133.261719 C 355.003906 133.441406 354.625 133.535156 354.246094 133.535156 C 353.863281 133.535156 353.484375 133.441406 353.109375 133.261719 C 352.734375 133.082031 352.367188 132.8125 352.015625 132.457031 C 351.660156 132.101562 351.324219 131.667969 351.007812 131.152344 C 350.691406 130.636719 350.394531 130.050781 350.125 129.394531 C 349.855469 128.738281 349.613281 128.023438 349.402344 127.253906 C 349.1875 126.480469 349.007812 125.667969 348.863281 124.808594 C 348.714844 123.953125 348.605469 123.070312 348.53125 122.160156 C 348.457031 121.25 348.417969 120.332031 348.417969 119.402344 C 348.417969 118.476562 348.457031 117.554688 348.53125 116.644531 C 348.605469 115.734375 348.714844 114.851562 348.863281 113.996094 C 349.007812 113.136719 349.1875 112.324219 349.402344 111.550781 C 349.613281 110.78125 349.855469 110.066406 350.125 109.410156 C 350.394531 108.753906 350.691406 108.167969 351.007812 107.652344 C 351.324219 107.136719 351.660156 106.703125 352.015625 106.347656 C 352.367188 105.992188 352.734375 105.722656 353.109375 105.542969 C 353.484375 105.363281 353.863281 105.273438 354.246094 105.273438 C 354.625 105.273438 355.003906 105.363281 355.378906 105.542969 C 355.757812 105.722656 356.121094 105.992188 356.472656 106.347656 C 356.828125 106.703125 357.164062 107.136719 357.480469 107.652344 C 357.796875 108.167969 358.09375 108.753906 358.363281 109.410156 C 358.632812 110.066406 358.875 110.78125 359.089844 111.550781 C 359.300781 112.324219 359.480469 113.136719 359.625 113.996094 C 359.773438 114.851562 359.882812 115.734375 359.957031 116.644531 C 360.03125 117.554688 360.070312 118.476562 360.070312 119.402344 Z M 360.070312 119.402344 " fill-opacity="1" fill-rule="nonzero"/><path fill="#ffffff" d="M 355.222656 96.230469 C 355.273438 96.566406 355.300781 96.90625 355.304688 97.242188 C 355.308594 97.582031 355.289062 97.910156 355.25 98.238281 C 355.207031 98.5625 355.140625 98.875 355.054688 99.175781 C 354.964844 99.476562 354.859375 99.757812 354.730469 100.019531 C 354.601562 100.285156 354.453125 100.523438 354.285156 100.742188 C 354.121094 100.957031 353.9375 101.148438 353.742188 101.308594 C 353.546875 101.472656 353.339844 101.601562 353.121094 101.703125 C 352.898438 101.804688 352.671875 101.871094 352.441406 101.90625 C 352.207031 101.941406 351.96875 101.945312 351.730469 101.914062 C 351.492188 101.882812 351.253906 101.816406 351.019531 101.722656 C 350.78125 101.625 350.554688 101.5 350.332031 101.339844 C 350.105469 101.183594 349.894531 100.996094 349.695312 100.78125 C 349.492188 100.570312 349.304688 100.332031 349.132812 100.070312 C 348.960938 99.8125 348.804688 99.53125 348.667969 99.234375 C 348.53125 98.933594 348.414062 98.625 348.320312 98.300781 C 348.222656 97.976562 348.152344 97.644531 348.097656 97.308594 C 348.046875 96.972656 348.019531 96.632812 348.015625 96.296875 C 348.011719 95.957031 348.03125 95.625 348.070312 95.300781 C 348.113281 94.976562 348.179688 94.664062 348.265625 94.363281 C 348.355469 94.0625 348.460938 93.78125 348.589844 93.519531 C 348.71875 93.253906 348.867188 93.015625 349.035156 92.796875 C 349.199219 92.582031 349.382812 92.390625 349.578125 92.230469 C 349.773438 92.066406 349.980469 91.9375 350.199219 91.835938 C 350.421875 91.734375 350.648438 91.667969 350.878906 91.632812 C 351.113281 91.597656 351.351562 91.59375 351.589844 91.625 C 351.828125 91.65625 352.066406 91.71875 352.300781 91.816406 C 352.539062 91.914062 352.765625 92.039062 352.988281 92.199219 C 353.214844 92.355469 353.425781 92.542969 353.625 92.753906 C 353.828125 92.96875 354.015625 93.207031 354.1875 93.46875 C 354.359375 93.726562 354.515625 94.007812 354.652344 94.304688 C 354.789062 94.601562 354.90625 94.914062 355 95.238281 C 355.097656 95.5625 355.167969 95.894531 355.222656 96.230469 Z M 355.222656 96.230469 " fill-opacity="1" fill-rule="nonzero"/><path fill="#ffffff" d="M 196.457031 190.558594 C 196.457031 190.558594 193.796875 194.550781 185.804688 187.898438 C 177.816406 181.25 171.160156 165.953125 170.492188 161.964844 C 169.828125 157.972656 166.5 147.332031 159.175781 151.324219 C 151.855469 155.316406 144.53125 159.96875 146.527344 165.953125 C 148.523438 171.941406 150.523438 180.582031 151.851562 185.234375 C 153.183594 189.882812 163.84375 215.824219 163.84375 215.824219 C 163.84375 215.824219 139.875 226.464844 132.550781 228.460938 C 125.226562 230.453125 119.238281 234.449219 111.246094 231.117188 C 103.257812 227.789062 92.605469 229.125 86.617188 226.464844 C 80.625 223.804688 77.292969 217.15625 77.292969 209.171875 C 77.292969 201.191406 81.953125 194.542969 77.960938 191.882812 C 73.96875 189.222656 64.644531 188.558594 64.644531 188.558594 C 64.644531 188.558594 57.988281 194.546875 57.320312 202.523438 C 56.65625 210.5 55.988281 237.769531 55.988281 240.429688 C 55.988281 243.09375 57.988281 251.070312 65.3125 254.394531 C 72.636719 257.71875 73.964844 261.046875 78.625 267.03125 C 83.285156 273.015625 89.277344 288.3125 90.609375 294.296875 C 91.9375 300.28125 108.199219 321.5625 115.234375 327.554688 C 126.550781 337.195312 155.234375 342.472656 163.835938 341.519531 C 184.808594 339.191406 180.8125 340.1875 202.117188 328.882812 C 223.421875 317.574219 247.058594 277.675781 251.71875 265.039062 C 256.375 252.402344 264.367188 241.097656 265.03125 237.109375 C 265.695312 233.117188 265.699219 221.8125 265.699219 221.8125 Z M 196.457031 190.558594 " fill-opacity="1" fill-rule="nonzero"/><path fill="#e85162" d="M 236.484375 202.152344 C 227.847656 199.261719 205.398438 181.921875 205.398438 181.921875 L 194.460938 190.589844 C 194.460938 190.589844 205.976562 205.039062 213.457031 209.664062 C 220.941406 214.289062 263.539062 230.46875 266.996094 230.46875 C 270.449219 230.46875 271.023438 214.867188 271.023438 214.867188 C 271.023438 214.867188 245.121094 205.03125 236.484375 202.152344 Z M 236.484375 202.152344 " fill-opacity="1" fill-rule="nonzero"/><path fill="#e85162" d="M 193.480469 269.15625 C 188.792969 263.386719 168.21875 247.503906 163.890625 240.289062 C 159.558594 233.074219 154.660156 217.125 150.976562 215.890625 C 147.296875 214.652344 139.78125 217.6875 140.214844 219.632812 C 140.644531 221.578125 143.023438 229.230469 143.023438 229.230469 C 143.023438 229.230469 157.164062 256.070312 165.824219 264.371094 C 174.484375 272.667969 197.65625 287.976562 205.453125 292.382812 C 213.25 296.785156 227.253906 304.582031 229.855469 304.007812 C 232.453125 303.433594 240.546875 296.871094 239.972656 294.273438 C 239.398438 291.675781 198.167969 274.921875 193.480469 269.15625 Z M 193.480469 269.15625 " fill-opacity="1" fill-rule="nonzero"/><path fill="#3cc2a2" d="M 167.117188 226.367188 C 167.445312 225.09375 168.191406 223.96875 168.972656 222.910156 C 172.402344 218.265625 176.570312 214.429688 181.484375 211.398438 C 186.425781 208.355469 192.726562 206.300781 197.960938 208.824219 C 200.566406 210.085938 202.539062 212.316406 204.585938 214.367188 C 210.886719 220.679688 218.398438 225.625 225.527344 230.992188 C 227.605469 232.554688 229.835938 234.480469 230 237.074219 C 230.140625 239.320312 228.667969 241.328125 227.265625 243.101562 L 221.789062 250.027344 C 218.265625 254.488281 214.121094 259.304688 208.464844 259.894531 C 202.664062 260.503906 197.53125 256.449219 193.121094 252.640625 C 187.832031 248.074219 182.695312 243.132812 177.070312 238.976562 C 173.8125 236.570312 164.292969 232.003906 167.117188 226.367188 Z M 167.117188 226.367188 " fill-opacity="1" fill-rule="nonzero"/><path fill="#e85162" d="M 81.375 193.046875 C 80.917969 190.257812 72.285156 186.910156 72.285156 186.910156 C 72.285156 186.910156 65.011719 186.347656 62.285156 188.59375 C 59.558594 190.839844 57.285156 198.074219 55.914062 203.652344 C 54.542969 209.234375 55.914062 219.832031 55.914062 219.832031 L 81.367188 219.269531 C 81.367188 219.269531 80.003906 209.226562 80.003906 205.882812 C 80.003906 202.535156 81.828125 195.835938 81.375 193.046875 Z M 81.375 193.046875 " fill-opacity="1" fill-rule="nonzero"/><path fill="#e85162" d="M 170.441406 153.984375 C 170.441406 151.492188 166.679688 147.996094 164.328125 146.496094 C 161.976562 145 152.101562 152.488281 148.808594 154.476562 C 145.511719 156.464844 145.042969 163.953125 145.515625 167.953125 C 145.984375 171.949219 149.277344 178.433594 149.277344 178.433594 L 172.324219 165.464844 C 172.324219 165.464844 170.441406 156.480469 170.441406 153.984375 Z M 170.441406 153.984375 " fill-opacity="1" fill-rule="nonzero"/><path fill="#ffffff" d="M 261.472656 203.570312 C 254.335938 212.707031 250.007812 224.683594 243.109375 234.246094 C 241.671875 236.246094 240.140625 238.390625 240.050781 240.851562 C 239.988281 242.507812 240.597656 244.109375 241.246094 245.640625 C 242.855469 249.433594 239.679688 253.75 241.875 257.242188 C 242.71875 258.582031 243.8125 261.957031 245.214844 262.691406 C 247.277344 263.769531 254.84375 260.519531 256.746094 259.175781 C 258.652344 257.828125 259.992188 255.847656 261.289062 253.914062 C 272.003906 237.929688 283.023438 221.160156 285.40625 202.082031 C 277.878906 200.933594 266.953125 196.546875 261.472656 203.570312 Z M 261.472656 203.570312 " fill-opacity="1" fill-rule="nonzero"/><path fill="#e85162" d="M 288.664062 195.375 C 288.273438 194.664062 287.609375 194.152344 286.960938 193.664062 L 282.707031 190.445312 C 280.929688 189.101562 279.117188 187.738281 277.019531 186.976562 C 274.921875 186.21875 272.464844 186.140625 270.5625 187.308594 C 269.34375 188.058594 268.460938 189.246094 267.667969 190.433594 C 265.164062 194.203125 260.980469 200.070312 259.148438 204.617188 C 257.015625 209.917969 276.925781 215.539062 281.960938 217.28125 C 284.585938 211.632812 287.703125 205.277344 288.859375 199.15625 C 289.101562 197.890625 289.289062 196.503906 288.664062 195.375 Z M 288.664062 195.375 " fill-opacity="1" fill-rule="nonzero"/><g clip-path="url(#3080ed18c2)"><path fill="#ffffff" d="M 168.257812 344.773438 C 185.214844 340.941406 193.402344 333.394531 198.125 320.777344 C 202.851562 308.15625 201.246094 293.757812 195.816406 281.425781 C 192.886719 274.777344 188.519531 268.273438 181.882812 265.300781 C 180.4375 264.652344 178.699219 263.96875 178.3125 262.433594 C 178.066406 261.472656 178.449219 260.476562 178.839844 259.566406 C 180.847656 254.882812 183.199219 250.378906 185.898438 246.058594 C 187.828125 242.972656 189.972656 239.882812 190.625 236.304688 C 191.726562 230.285156 187.738281 223.765625 181.875 221.984375 C 180.851562 221.671875 179.746094 221.492188 178.703125 221.742188 C 176.839844 222.1875 175.570312 223.859375 174.464844 225.417969 C 168.792969 233.390625 163.125 241.359375 157.457031 249.332031 C 155.152344 252.570312 152.808594 255.882812 151.691406 259.707031 C 150.570312 263.527344 150.890625 267.992188 153.496094 270.992188 C 153.953125 271.519531 154.484375 272.015625 154.730469 272.667969 C 155.535156 274.777344 153.078125 276.578125 151.058594 277.589844 C 143.167969 281.558594 140.75 282.179688 133.617188 287.378906 C 127.222656 292.035156 121.792969 298.167969 120.332031 300.238281 C 112.183594 311.800781 112.03125 312.890625 112.53125 315.855469 C 115.132812 331.371094 124.546875 335.976562 139.113281 341.089844 C 150.148438 344.960938 144.195312 344.179688 159.265625 345.582031 C 159.265625 345.527344 159.34375 345.5625 159.34375 345.503906 Z M 168.257812 344.773438 " fill-opacity="1" fill-rule="nonzero"/></g><path fill="#e85162" d="M 182.164062 254.875 C 182.164062 254.875 191.335938 240.628906 192.152344 238.375 C 192.964844 236.117188 193.226562 230.230469 190.816406 227.402344 C 188.402344 224.570312 186.636719 222.148438 182.679688 220.839844 C 181.101562 220.320312 178.246094 219.53125 177.191406 220.824219 C 176.136719 222.117188 162.347656 241.269531 162.347656 241.269531 Z M 182.164062 254.875 " fill-opacity="1" fill-rule="nonzero"/><path fill="#decdcc" d="M 117.238281 233.222656 C 110.382812 235.445312 103.523438 238.746094 99.214844 244.519531 C 95.074219 250.0625 91.105469 265.207031 89.945312 272.03125 C 93.632812 262.65625 93.253906 254.207031 105.921875 243.101562 C 112.925781 236.964844 131.03125 231.835938 138.378906 226.644531 C 135.882812 227.972656 129.382812 229.710938 126.726562 230.476562 C 123.554688 231.386719 120.367188 232.210938 117.238281 233.222656 Z M 117.238281 233.222656 " fill-opacity="1" fill-rule="nonzero"/><path fill="#decdcc" d="M 172.164062 210.316406 C 174.859375 208.445312 177.628906 206.691406 180.472656 205.054688 C 183.097656 203.558594 185.785156 202.136719 188.222656 200.347656 C 190.308594 198.8125 192.53125 196.914062 193.882812 194.71875 C 187.808594 196.871094 182.058594 201.035156 177.347656 205.367188 C 175.59375 206.976562 173.921875 208.703125 172.164062 210.316406 Z M 172.164062 210.316406 " fill-opacity="1" fill-rule="nonzero"/><path fill="#decdcc" d="M 172.164062 210.316406 C 170.183594 211.6875 168.246094 213.121094 166.355469 214.621094 C 168.496094 213.476562 170.375 211.957031 172.164062 210.316406 Z M 172.164062 210.316406 " fill-opacity="1" fill-rule="nonzero"/><path fill="#decdcc" d="M 236.585938 243.015625 C 237.148438 237.027344 240.765625 230.714844 240.828125 225.050781 C 235.375 231.601562 234.058594 241.398438 233.667969 249.609375 C 233.554688 252.007812 233.519531 254.453125 234.140625 256.773438 C 234.757812 259.097656 236.109375 261.320312 238.199219 262.507812 C 235.121094 260.753906 236.300781 246.050781 236.585938 243.015625 Z M 236.585938 243.015625 " fill-opacity="1" fill-rule="nonzero"/><path fill="#decdcc" d="M 145.699219 267.4375 C 144.734375 269.644531 143.941406 271.949219 143.621094 274.335938 C 142.847656 280.136719 145.105469 286.257812 149.460938 290.171875 C 146.527344 284.503906 145.421875 281.75 145.859375 275.199219 C 146.019531 272.828125 148.367188 265.839844 149.160156 263.59375 C 149.867188 261.605469 150.949219 259.78125 152.027344 257.96875 C 153.425781 255.617188 155.171875 253.210938 156.1875 250.707031 C 154.097656 253.757812 151.984375 256.867188 149.867188 259.929688 C 148.238281 262.300781 146.851562 264.804688 145.699219 267.4375 Z M 145.699219 267.4375 " fill-opacity="1" fill-rule="nonzero"/><path fill="#ffffff" d="M 252.121094 131.714844 C 252.425781 132.453125 252.65625 133.210938 252.8125 133.992188 C 252.96875 134.773438 253.046875 135.5625 253.046875 136.359375 C 253.046875 137.15625 252.96875 137.945312 252.8125 138.726562 C 252.65625 139.511719 252.425781 140.269531 252.121094 141.003906 C 251.816406 141.742188 251.441406 142.441406 251 143.101562 C 250.554688 143.765625 250.050781 144.378906 249.488281 144.941406 C 248.925781 145.503906 248.3125 146.007812 247.648438 146.453125 C 246.984375 146.894531 246.285156 147.269531 245.546875 147.574219 C 244.808594 147.878906 244.050781 148.109375 243.269531 148.261719 C 242.484375 148.417969 241.695312 148.496094 240.898438 148.496094 C 240.101562 148.496094 239.308594 148.417969 238.527344 148.261719 C 237.746094 148.109375 236.984375 147.878906 236.25 147.574219 C 235.511719 147.269531 234.8125 146.894531 234.148438 146.453125 C 233.484375 146.007812 232.871094 145.503906 232.308594 144.941406 C 231.742188 144.378906 231.238281 143.765625 230.796875 143.101562 C 230.351562 142.441406 229.976562 141.742188 229.671875 141.003906 C 229.367188 140.269531 229.136719 139.511719 228.980469 138.726562 C 228.828125 137.945312 228.75 137.15625 228.75 136.359375 C 228.75 135.5625 228.828125 134.773438 228.980469 133.992188 C 229.136719 133.210938 229.367188 132.453125 229.671875 131.714844 C 229.976562 130.980469 230.351562 130.28125 230.796875 129.617188 C 231.238281 128.957031 231.742188 128.34375 232.308594 127.777344 C 232.871094 127.214844 233.484375 126.710938 234.148438 126.269531 C 234.8125 125.828125 235.511719 125.453125 236.25 125.148438 C 236.984375 124.84375 237.746094 124.613281 238.527344 124.457031 C 239.308594 124.300781 240.101562 124.226562 240.898438 124.226562 C 241.695312 124.226562 242.484375 124.300781 243.269531 124.457031 C 244.050781 124.613281 244.808594 124.84375 245.546875 125.148438 C 246.285156 125.453125 246.984375 125.828125 247.648438 126.269531 C 248.3125 126.710938 248.925781 127.214844 249.488281 127.777344 C 250.050781 128.34375 250.554688 128.957031 251 129.617188 C 251.441406 130.28125 251.816406 130.980469 252.121094 131.714844 Z M 252.121094 131.714844 " fill-opacity="1" fill-rule="nonzero"/><path fill="#ffffff" d="M 286.117188 148.382812 C 286.425781 149.121094 286.65625 149.878906 286.808594 150.660156 C 286.964844 151.441406 287.042969 152.230469 287.042969 153.027344 C 287.042969 153.824219 286.964844 154.613281 286.808594 155.394531 C 286.65625 156.175781 286.425781 156.933594 286.117188 157.671875 C 285.8125 158.40625 285.4375 159.105469 284.996094 159.769531 C 284.554688 160.433594 284.050781 161.046875 283.484375 161.609375 C 282.921875 162.171875 282.308594 162.675781 281.644531 163.117188 C 280.980469 163.5625 280.28125 163.933594 279.542969 164.238281 C 278.804688 164.542969 278.046875 164.773438 277.265625 164.929688 C 276.480469 165.085938 275.691406 165.164062 274.894531 165.164062 C 274.097656 165.164062 273.304688 165.085938 272.523438 164.929688 C 271.742188 164.773438 270.980469 164.542969 270.246094 164.238281 C 269.507812 163.933594 268.808594 163.5625 268.144531 163.117188 C 267.480469 162.675781 266.867188 162.171875 266.304688 161.609375 C 265.738281 161.046875 265.234375 160.433594 264.792969 159.769531 C 264.347656 159.105469 263.976562 158.40625 263.667969 157.671875 C 263.363281 156.933594 263.132812 156.175781 262.976562 155.394531 C 262.824219 154.613281 262.746094 153.824219 262.746094 153.027344 C 262.746094 152.230469 262.824219 151.441406 262.976562 150.660156 C 263.132812 149.878906 263.363281 149.121094 263.667969 148.382812 C 263.976562 147.648438 264.347656 146.949219 264.792969 146.285156 C 265.234375 145.621094 265.738281 145.007812 266.304688 144.445312 C 266.867188 143.882812 267.480469 143.378906 268.144531 142.9375 C 268.808594 142.492188 269.507812 142.121094 270.246094 141.816406 C 270.980469 141.511719 271.742188 141.28125 272.523438 141.125 C 273.304688 140.96875 274.097656 140.890625 274.894531 140.890625 C 275.691406 140.890625 276.480469 140.96875 277.265625 141.125 C 278.046875 141.28125 278.804688 141.511719 279.542969 141.816406 C 280.28125 142.121094 280.980469 142.492188 281.644531 142.9375 C 282.308594 143.378906 282.921875 143.882812 283.484375 144.445312 C 284.050781 145.007812 284.554688 145.621094 284.996094 146.285156 C 285.4375 146.949219 285.8125 147.648438 286.117188 148.382812 Z M 286.117188 148.382812 " fill-opacity="1" fill-rule="nonzero"/><path fill="#ffffff" d="M 254.046875 156.3125 C 253.296875 156.328125 251.855469 156.375 250.550781 157.308594 C 250.457031 157.375 250.375 157.453125 250.289062 157.523438 C 250.386719 156.914062 250.371094 156.308594 250.246094 155.707031 C 249.914062 154.136719 248.886719 153.136719 248.339844 152.617188 C 244.640625 149.09375 236.742188 147.992188 231.824219 152.179688 C 231.207031 152.707031 227.035156 156.386719 228.097656 160.941406 C 229.222656 165.753906 235.148438 167.078125 235.683594 167.1875 C 241.492188 168.394531 245.898438 164.058594 246.8125 163.15625 C 247.132812 162.839844 247.644531 162.335938 248.179688 161.691406 C 248.019531 162.832031 247.976562 163.976562 248.054688 165.121094 C 248.121094 166.402344 248.441406 172.570312 253.546875 175.601562 C 254.019531 175.882812 259.289062 178.898438 263.367188 176.101562 C 267.226562 173.453125 266.632812 167.925781 266.53125 167.117188 C 265.730469 160.714844 259.15625 156.203125 254.046875 156.3125 Z M 254.046875 156.3125 " fill-opacity="1" fill-rule="nonzero"/><path fill="#0e5279" d="M 256.113281 154.324219 L 249.3125 151.472656 C 249.003906 151.34375 248.683594 151.304688 248.355469 151.351562 C 248.023438 151.402344 247.730469 151.53125 247.472656 151.746094 C 247.21875 151.957031 247.035156 152.21875 246.921875 152.535156 C 246.8125 152.847656 246.792969 153.167969 246.863281 153.496094 L 247.601562 156.984375 C 247.679688 157.367188 247.835938 157.71875 248.0625 158.035156 C 248.289062 158.355469 248.570312 158.613281 248.90625 158.816406 C 249.242188 159.015625 249.601562 159.140625 249.992188 159.191406 C 250.378906 159.242188 250.761719 159.210938 251.136719 159.101562 L 255.921875 157.699219 C 256.289062 157.59375 256.589844 157.394531 256.828125 157.097656 C 257.066406 156.796875 257.195312 156.460938 257.21875 156.078125 C 257.238281 155.699219 257.148438 155.347656 256.945312 155.027344 C 256.742188 154.703125 256.464844 154.46875 256.113281 154.324219 Z M 256.113281 154.324219 " fill-opacity="1" fill-rule="nonzero"/><path fill="#0e5279" d="M 250.746094 139.15625 C 250.746094 138.574219 250.6875 138 250.574219 137.429688 C 250.460938 136.855469 250.292969 136.300781 250.070312 135.765625 C 249.847656 135.226562 249.574219 134.714844 249.25 134.230469 C 248.925781 133.746094 248.558594 133.300781 248.144531 132.886719 C 247.734375 132.476562 247.285156 132.109375 246.800781 131.785156 C 246.316406 131.460938 245.804688 131.1875 245.265625 130.964844 C 244.726562 130.742188 244.171875 130.574219 243.601562 130.460938 C 243.027344 130.347656 242.453125 130.289062 241.867188 130.289062 C 241.285156 130.289062 240.707031 130.347656 240.136719 130.460938 C 239.566406 130.574219 239.007812 130.742188 238.472656 130.964844 C 237.933594 131.1875 237.421875 131.460938 236.9375 131.785156 C 236.453125 132.109375 236.003906 132.476562 235.589844 132.886719 C 235.179688 133.300781 234.8125 133.746094 234.488281 134.230469 C 234.164062 134.714844 233.890625 135.226562 233.667969 135.765625 C 233.441406 136.300781 233.273438 136.855469 233.160156 137.429688 C 233.046875 138 232.992188 138.574219 232.992188 139.15625 C 232.992188 139.742188 233.046875 140.316406 233.160156 140.886719 C 233.273438 141.460938 233.441406 142.015625 233.667969 142.550781 C 233.890625 143.089844 234.164062 143.601562 234.488281 144.085938 C 234.8125 144.570312 235.179688 145.015625 235.589844 145.429688 C 236.003906 145.839844 236.453125 146.207031 236.9375 146.53125 C 237.421875 146.855469 237.933594 147.128906 238.472656 147.351562 C 239.007812 147.574219 239.566406 147.742188 240.136719 147.855469 C 240.707031 147.96875 241.285156 148.027344 241.867188 148.027344 C 242.453125 148.027344 243.027344 147.96875 243.601562 147.855469 C 244.171875 147.742188 244.726562 147.574219 245.265625 147.351562 C 245.804688 147.128906 246.316406 146.855469 246.800781 146.53125 C 247.285156 146.207031 247.734375 145.839844 248.148438 145.429688 C 248.558594 145.019531 248.925781 144.570312 249.25 144.085938 C 249.574219 143.601562 249.847656 143.089844 250.070312 142.550781 C 250.292969 142.015625 250.460938 141.460938 250.574219 140.886719 C 250.691406 140.316406 250.746094 139.742188 250.746094 139.15625 Z M 250.746094 139.15625 " fill-opacity="1" fill-rule="nonzero"/><path fill="#0e5279" d="M 280.953125 154.09375 C 280.953125 154.675781 280.898438 155.253906 280.785156 155.824219 C 280.671875 156.394531 280.503906 156.949219 280.277344 157.488281 C 280.054688 158.023438 279.78125 158.535156 279.457031 159.019531 C 279.136719 159.503906 278.765625 159.953125 278.355469 160.363281 C 277.941406 160.773438 277.496094 161.144531 277.011719 161.464844 C 276.523438 161.789062 276.015625 162.0625 275.476562 162.285156 C 274.9375 162.507812 274.382812 162.675781 273.808594 162.789062 C 273.238281 162.902344 272.660156 162.960938 272.078125 162.960938 C 271.496094 162.960938 270.917969 162.902344 270.347656 162.789062 C 269.777344 162.675781 269.21875 162.507812 268.683594 162.285156 C 268.144531 162.0625 267.632812 161.789062 267.148438 161.464844 C 266.664062 161.144531 266.214844 160.773438 265.800781 160.363281 C 265.390625 159.953125 265.023438 159.503906 264.699219 159.019531 C 264.375 158.535156 264.101562 158.023438 263.878906 157.488281 C 263.65625 156.949219 263.488281 156.394531 263.375 155.824219 C 263.257812 155.253906 263.203125 154.675781 263.203125 154.09375 C 263.203125 153.511719 263.257812 152.933594 263.375 152.363281 C 263.488281 151.792969 263.65625 151.238281 263.878906 150.703125 C 264.101562 150.164062 264.375 149.652344 264.699219 149.167969 C 265.023438 148.683594 265.390625 148.238281 265.800781 147.824219 C 266.214844 147.414062 266.664062 147.046875 267.148438 146.722656 C 267.632812 146.398438 268.144531 146.125 268.683594 145.902344 C 269.21875 145.679688 269.777344 145.511719 270.347656 145.398438 C 270.917969 145.285156 271.496094 145.226562 272.078125 145.226562 C 272.660156 145.226562 273.238281 145.285156 273.808594 145.398438 C 274.382812 145.511719 274.9375 145.679688 275.476562 145.902344 C 276.015625 146.125 276.523438 146.398438 277.011719 146.722656 C 277.496094 147.046875 277.941406 147.414062 278.355469 147.824219 C 278.765625 148.238281 279.136719 148.683594 279.457031 149.167969 C 279.78125 149.652344 280.054688 150.164062 280.277344 150.703125 C 280.503906 151.238281 280.671875 151.792969 280.785156 152.363281 C 280.898438 152.933594 280.953125 153.511719 280.953125 154.09375 Z M 280.953125 154.09375 " fill-opacity="1" fill-rule="nonzero"/><path fill="#e85162" d="M 336.769531 124.554688 C 336.769531 124.554688 316.796875 128.046875 314.300781 128.878906 C 311.804688 129.710938 304.3125 132.039062 304.3125 132.039062 C 304.3125 132.039062 306.976562 137.191406 308.308594 140.851562 C 309.640625 144.507812 312.296875 164.125 312.296875 164.125 C 312.296875 164.125 320.285156 156.808594 325.277344 148.996094 C 330.273438 141.179688 336.761719 129.375 337.269531 128.046875 C 337.777344 126.71875 336.769531 124.554688 336.769531 124.554688 Z M 336.769531 124.554688 " fill-opacity="1" fill-rule="nonzero"/><path fill="#e85162" d="M 235.074219 77.839844 C 235.074219 77.839844 233.074219 79 232.742188 79.832031 C 232.410156 80.667969 227.917969 87.480469 226.085938 91.96875 C 224.253906 96.457031 223.257812 98.285156 221.09375 105.269531 C 218.929688 112.253906 218.09375 116.078125 218.09375 116.078125 C 218.09375 116.078125 227.089844 111.421875 231.910156 109.261719 C 236.730469 107.097656 245.058594 105.269531 245.058594 105.269531 C 245.058594 105.269531 242.894531 95.128906 241.5625 91.136719 C 240.234375 87.148438 235.074219 77.839844 235.074219 77.839844 Z M 235.074219 77.839844 " fill-opacity="1" fill-rule="nonzero"/><path stroke-linecap="round" transform="matrix(0.187374, 0, 0, 0.187167, -0.618327, 5.999853)" fill="none" stroke-linejoin="miter" d="M 1207.502889 756.384376 L 1114.503057 703.039735 Z M 1207.502889 756.384376 " stroke="#ffffff" stroke-width="6.96" stroke-opacity="1" stroke-miterlimit="10"/><path stroke-linecap="round" transform="matrix(0.187374, 0, 0, 0.187167, -0.618327, 5.999853)" fill="none" stroke-linejoin="miter" d="M 1200.164637 794.472783 L 1095.782176 763.542909 Z M 1200.164637 794.472783 " stroke="#ffffff" stroke-width="6.96" stroke-opacity="1" stroke-miterlimit="10"/><path stroke-linecap="round" transform="matrix(0.187374, 0, 0, 0.187167, -0.618327, 5.999853)" fill="none" stroke-linejoin="miter" d="M 1481.332252 884.799702 L 1582.962868 918.797518 Z M 1481.332252 884.799702 " stroke="#ffffff" stroke-width="6.96" stroke-opacity="1" stroke-miterlimit="10"/><path stroke-linecap="round" transform="matrix(0.187374, 0, 0, 0.187167, -0.618327, 5.999853)" fill="none" stroke-linejoin="miter" d="M 1457.733102 915.604353 L 1550.232598 972.997844 Z M 1457.733102 915.604353 " stroke="#ffffff" stroke-width="6.96" stroke-opacity="1" stroke-miterlimit="10"/><path fill="#e07b53" d="M 279.296875 110.378906 C 279.3125 110.152344 279.265625 109.941406 279.164062 109.746094 C 279.003906 109.535156 278.800781 109.378906 278.554688 109.28125 C 277.242188 108.632812 275.105469 107.339844 273.589844 107.4375 C 272.210938 107.523438 271.414062 109.613281 270.820312 110.601562 C 268.976562 113.632812 267.472656 116.820312 266.308594 120.171875 C 265.667969 122.039062 265.171875 123.941406 264.808594 125.878906 C 264.679688 126.589844 264.589844 127.390625 265.03125 127.972656 C 265.429688 128.503906 266.1875 128.703125 266.859375 128.597656 C 267.53125 128.488281 268.128906 128.125 268.660156 127.71875 C 270.210938 126.53125 271.34375 124.910156 272.449219 123.335938 C 274.582031 120.273438 276.730469 117.195312 278.316406 113.839844 C 278.828125 112.746094 279.292969 111.585938 279.296875 110.378906 Z M 279.296875 110.378906 " fill-opacity="1" fill-rule="nonzero"/><path fill="#e07b53" d="M 287.328125 115.511719 C 286.957031 115.015625 286.511719 114.601562 285.984375 114.277344 C 284.945312 113.570312 282.902344 112.089844 281.773438 112.910156 C 280.535156 113.808594 279.503906 115.625 278.679688 116.890625 C 276.863281 119.6875 275.546875 122.703125 274.734375 125.9375 C 274.53125 126.753906 274.390625 127.710938 274.921875 128.359375 C 275.308594 128.777344 275.789062 128.984375 276.359375 128.980469 C 277.550781 129.023438 278.640625 128.347656 279.605469 127.648438 C 281.890625 125.988281 283.941406 124.082031 285.761719 121.921875 C 286.527344 121.015625 287.261719 120.050781 287.636719 118.925781 C 288.011719 117.804688 287.996094 116.492188 287.328125 115.511719 Z M 287.328125 115.511719 " fill-opacity="1" fill-rule="nonzero"/><path fill="#e07b53" d="M 266.613281 105.9375 C 265.054688 105.695312 263.191406 104.910156 261.929688 106.707031 C 261.441406 107.394531 261.230469 108.328125 261.035156 109.222656 C 260.191406 113.097656 259.347656 117.011719 259.191406 120.984375 C 259.15625 121.933594 259.347656 123.167969 260.0625 123.207031 C 260.386719 123.226562 260.695312 122.960938 260.96875 122.699219 C 264.078125 119.703125 268.257812 112.902344 269.53125 108.101562 C 270.085938 105.988281 268.777344 106.265625 266.613281 105.9375 Z M 266.613281 105.9375 " fill-opacity="1" fill-rule="nonzero"/><g clip-path="url(#1c324bc27f)"><g clip-path="url(#d83f818bbb)"><g clip-path="url(#6586bbf428)"><g clip-path="url(#f604d01356)"><path fill="#f9b6a4" d="M 204.703125 75.894531 C 206.070312 74.964844 207.082031 73.636719 207.03125 71.953125 C 207 70.769531 206.640625 69.515625 206.109375 68.453125 C 204.84375 65.917969 203.40625 63.46875 202.015625 60.996094 C 200.140625 57.652344 198.253906 54.320312 196.332031 50.933594 C 196.167969 50.648438 195.988281 50.371094 195.78125 50.113281 C 195.75 50.070312 195.71875 50.03125 195.6875 49.992188 C 194.222656 48.273438 192.804688 46.511719 191.265625 44.855469 C 190.617188 44.160156 189.765625 43.613281 188.929688 43.136719 C 186.902344 41.972656 184.746094 42.386719 182.695312 44.089844 C 181.050781 45.457031 180.777344 47.335938 180.574219 49.234375 C 180.511719 49.800781 180.773438 50.441406 181.011719 50.992188 C 181.542969 52.226562 181.96875 53.566406 182.769531 54.609375 C 184.996094 57.511719 187.3125 60.351562 189.738281 63.09375 C 193.386719 67.226562 196.808594 71.570312 200.941406 75.269531 C 202.160156 76.363281 203.507812 76.710938 204.707031 75.894531 Z M 204.703125 75.894531 " fill-opacity="1" fill-rule="nonzero"/></g></g></g></g><g clip-path="url(#b4510b65c9)"><g clip-path="url(#ffa95f8c61)"><g clip-path="url(#ef3d14ab5e)"><g clip-path="url(#dc8e673e68)"><path fill="#f9b6a4" d="M 209.105469 30.113281 C 206.589844 26.550781 201.015625 26.878906 199.074219 30.757812 C 197.894531 33.117188 198.121094 35.480469 199.316406 37.753906 C 202.035156 42.9375 204.589844 48.195312 206.886719 53.582031 C 208.046875 56.304688 209.292969 58.988281 210.53125 61.753906 C 211.28125 63.234375 211.929688 64.691406 212.746094 66.046875 C 213.21875 66.828125 213.875 67.566406 214.609375 68.113281 C 215.988281 69.136719 217.828125 68.808594 218.796875 67.515625 C 219.613281 66.425781 219.910156 65.21875 219.59375 63.890625 C 219.367188 62.949219 219.144531 62.007812 218.855469 61.082031 C 218.050781 58.503906 217.125 55.964844 216.410156 53.363281 C 215 48.253906 213.746094 43.105469 212.34375 37.992188 C 211.589844 35.242188 210.789062 32.496094 209.105469 30.113281 Z M 209.105469 30.113281 " fill-opacity="1" fill-rule="nonzero"/></g></g></g></g><g clip-path="url(#dfaee759eb)"><g clip-path="url(#bed2a94b8a)"><g clip-path="url(#096c1cfd6d)"><g clip-path="url(#167a7f28b8)"><path fill="#f9b6a4" d="M 219.847656 69.527344 C 217.707031 70.890625 216.835938 72.898438 216.960938 75.335938 C 217.113281 78.226562 220.367188 80.210938 222.8125 78.546875 C 223.515625 78.066406 224.003906 77.261719 224.5625 76.585938 C 225.882812 74.984375 226.109375 73.191406 225.234375 71.535156 C 224.785156 70.683594 224.085938 69.96875 223.21875 69.546875 C 222.035156 68.972656 220.753906 68.949219 219.84375 69.527344 Z M 219.847656 69.527344 " fill-opacity="1" fill-rule="nonzero"/></g></g></g></g><g clip-path="url(#3059f9c003)"><g clip-path="url(#5f0274eee4)"><g clip-path="url(#669f354e0f)"><g clip-path="url(#a9cb2f42a2)"><path fill="#f9b6a4" d="M 211.636719 76.117188 C 211.007812 76.0625 210.367188 76.179688 209.699219 76.289062 C 209.082031 76.394531 208.480469 76.628906 207.992188 77.027344 C 207.144531 77.710938 206.546875 78.585938 206.132812 79.585938 C 205.734375 80.558594 206.089844 81.53125 206.339844 82.507812 C 206.875 84.574219 209.871094 86.367188 212.625 84.542969 C 214.183594 83.511719 214.621094 81.945312 214.863281 80.269531 C 215.195312 78.003906 213.917969 76.304688 211.636719 76.117188 Z M 211.636719 76.117188 " fill-opacity="1" fill-rule="nonzero"/></g></g></g></g><g clip-path="url(#3ba0ca2996)"><g clip-path="url(#480e589822)"><g clip-path="url(#1054f863b0)"><g clip-path="url(#c903761a3c)"><path fill="#f9b6a4" d="M 278.542969 78.566406 C 280.128906 79.027344 281.796875 78.964844 283.066406 77.855469 C 283.957031 77.078125 284.695312 76.003906 285.179688 74.917969 C 286.332031 72.332031 287.304688 69.660156 288.332031 67.019531 C 289.71875 63.445312 291.089844 59.867188 292.480469 56.230469 C 292.597656 55.925781 292.695312 55.609375 292.765625 55.285156 C 292.777344 55.234375 292.789062 55.183594 292.796875 55.132812 C 293.191406 52.910156 293.652344 50.695312 293.949219 48.457031 C 294.074219 47.515625 293.953125 46.511719 293.792969 45.558594 C 293.398438 43.253906 291.707031 41.855469 289.089844 41.355469 C 286.988281 40.953125 285.367188 41.9375 283.773438 42.988281 C 283.292969 43.300781 282.964844 43.910156 282.691406 44.445312 C 282.078125 45.640625 281.316406 46.820312 281.019531 48.101562 C 280.195312 51.667969 279.480469 55.261719 278.902344 58.875 C 278.035156 64.320312 276.855469 69.722656 276.632812 75.265625 C 276.5625 76.902344 277.152344 78.164062 278.542969 78.570312 Z M 278.542969 78.566406 " fill-opacity="1" fill-rule="nonzero"/></g></g></g></g><g clip-path="url(#6d9815cfc4)"><g clip-path="url(#3b6abd6ea0)"><g clip-path="url(#8c118e6591)"><g clip-path="url(#f684fefdf5)"><path fill="#f9b6a4" d="M 316.671875 52.847656 C 317.820312 48.640625 314.023438 44.550781 309.796875 45.515625 C 307.222656 46.105469 305.546875 47.785156 304.550781 50.152344 C 302.28125 55.546875 299.847656 60.863281 297.148438 66.058594 C 295.785156 68.6875 294.507812 71.355469 293.160156 74.074219 C 292.496094 75.59375 291.78125 77.019531 291.257812 78.507812 C 290.953125 79.371094 290.800781 80.347656 290.847656 81.261719 C 290.933594 82.976562 292.359375 84.1875 293.972656 84.113281 C 295.332031 84.046875 296.453125 83.515625 297.273438 82.421875 C 297.855469 81.648438 298.441406 80.878906 298.972656 80.066406 C 300.449219 77.808594 301.824219 75.476562 303.375 73.269531 C 306.421875 68.9375 309.597656 64.6875 312.648438 60.355469 C 314.292969 58.027344 315.902344 55.664062 316.671875 52.847656 Z M 316.671875 52.847656 " fill-opacity="1" fill-rule="nonzero"/></g></g></g></g><g clip-path="url(#d0a13d9c77)"><g clip-path="url(#e8a54593f8)"><g clip-path="url(#b3fd2e282f)"><g clip-path="url(#14fc413bde)"><path fill="#f9b6a4" d="M 293.085938 86.203125 C 290.671875 85.417969 288.570312 86.023438 286.769531 87.671875 C 284.632812 89.625 285.171875 93.398438 288.015625 94.226562 C 288.828125 94.464844 289.761719 94.332031 290.640625 94.332031 C 292.714844 94.332031 294.242188 93.367188 294.964844 91.636719 C 295.335938 90.75 295.441406 89.757812 295.214844 88.820312 C 294.90625 87.539062 294.109375 86.539062 293.085938 86.203125 Z M 293.085938 86.203125 " fill-opacity="1" fill-rule="nonzero"/></g></g></g></g><g clip-path="url(#51d0dc6cae)"><g clip-path="url(#9114e7997a)"><g clip-path="url(#6bad3cfc1f)"><g clip-path="url(#491ef40121)"><path fill="#f9b6a4" d="M 282.78125 84.058594 C 282.421875 83.539062 281.925781 83.117188 281.414062 82.675781 C 280.941406 82.261719 280.378906 81.949219 279.761719 81.824219 C 278.695312 81.605469 277.636719 81.703125 276.601562 82.019531 C 275.597656 82.328125 275.070312 83.222656 274.480469 84.035156 C 273.222656 85.761719 273.746094 89.210938 276.90625 90.179688 C 278.695312 90.726562 280.179688 90.066406 281.628906 89.191406 C 283.585938 88.003906 284.085938 85.9375 282.777344 84.058594 Z M 282.78125 84.058594 " fill-opacity="1" fill-rule="nonzero"/></g></g></g></g></svg>