<svg xmlns="http://www.w3.org/2000/svg" xmlns:xlink="http://www.w3.org/1999/xlink" width="500" zoomAndPan="magnify" viewBox="0 0 375 374.999991" height="500" preserveAspectRatio="xMidYMid meet" version="1.0"><defs><clipPath id="2e1aec7c00"><path d="M 139 14.976562 L 375 14.976562 L 375 279 L 139 279 Z M 139 14.976562 " clip-rule="nonzero"/></clipPath><clipPath id="a887d99222"><path d="M 121 224 L 219 224 L 219 359.976562 L 121 359.976562 Z M 121 224 " clip-rule="nonzero"/></clipPath><clipPath id="8bde1acc6f"><path d="M 180 42 L 208 42 L 208 77 L 180 77 Z M 180 42 " clip-rule="nonzero"/></clipPath><clipPath id="d090bc374d"><path d="M 175.101562 40.132812 L 206.484375 24.082031 L 232.4375 74.832031 L 201.050781 90.882812 Z M 175.101562 40.132812 " clip-rule="nonzero"/></clipPath><clipPath id="c40e474575"><path d="M 175.101562 40.132812 L 206.484375 24.082031 L 232.4375 74.832031 L 201.050781 90.882812 Z M 175.101562 40.132812 " clip-rule="nonzero"/></clipPath><clipPath id="8d052693cb"><path d="M 175.101562 40.132812 L 206.484375 24.082031 L 232.4375 74.832031 L 201.050781 90.882812 Z M 175.101562 40.132812 " clip-rule="nonzero"/></clipPath><clipPath id="4c7bfe8d28"><path d="M 198 27 L 220 27 L 220 69 L 198 69 Z M 198 27 " clip-rule="nonzero"/></clipPath><clipPath id="74faba56f3"><path d="M 175.101562 40.132812 L 206.484375 24.082031 L 232.4375 74.832031 L 201.050781 90.882812 Z M 175.101562 40.132812 " clip-rule="nonzero"/></clipPath><clipPath id="2dc3568c45"><path d="M 175.101562 40.132812 L 206.484375 24.082031 L 232.4375 74.832031 L 201.050781 90.882812 Z M 175.101562 40.132812 " clip-rule="nonzero"/></clipPath><clipPath id="6dc691c8fb"><path d="M 175.101562 40.132812 L 206.484375 24.082031 L 232.4375 74.832031 L 201.050781 90.882812 Z M 175.101562 40.132812 " clip-rule="nonzero"/></clipPath><clipPath id="d59d1acf20"><path d="M 216 69 L 226 69 L 226 80 L 216 80 Z M 216 69 " clip-rule="nonzero"/></clipPath><clipPath id="4134e4fbcd"><path d="M 175.101562 40.132812 L 206.484375 24.082031 L 232.4375 74.832031 L 201.050781 90.882812 Z M 175.101562 40.132812 " clip-rule="nonzero"/></clipPath><clipPath id="8f5a51b4d5"><path d="M 175.101562 40.132812 L 206.484375 24.082031 L 232.4375 74.832031 L 201.050781 90.882812 Z M 175.101562 40.132812 " clip-rule="nonzero"/></clipPath><clipPath id="adf5a958d4"><path d="M 175.101562 40.132812 L 206.484375 24.082031 L 232.4375 74.832031 L 201.050781 90.882812 Z M 175.101562 40.132812 " clip-rule="nonzero"/></clipPath><clipPath id="d2bb2a0b3f"><path d="M 205 76 L 215 76 L 215 86 L 205 86 Z M 205 76 " clip-rule="nonzero"/></clipPath><clipPath id="81811bc8e4"><path d="M 175.101562 40.132812 L 206.484375 24.082031 L 232.4375 74.832031 L 201.050781 90.882812 Z M 175.101562 40.132812 " clip-rule="nonzero"/></clipPath><clipPath id="276b911b3b"><path d="M 175.101562 40.132812 L 206.484375 24.082031 L 232.4375 74.832031 L 201.050781 90.882812 Z M 175.101562 40.132812 " clip-rule="nonzero"/></clipPath><clipPath id="96eab7351c"><path d="M 175.101562 40.132812 L 206.484375 24.082031 L 232.4375 74.832031 L 201.050781 90.882812 Z M 175.101562 40.132812 " clip-rule="nonzero"/></clipPath><clipPath id="70bd015d73"><path d="M 288 23 L 306 23 L 306 61 L 288 61 Z M 288 23 " clip-rule="nonzero"/></clipPath><clipPath id="5905ae4a58"><path d="M 298.714844 14.976562 L 331.058594 28.992188 L 308.398438 81.292969 L 276.054688 67.277344 Z M 298.714844 14.976562 " clip-rule="nonzero"/></clipPath><clipPath id="8a0c0996b6"><path d="M 298.714844 14.976562 L 331.058594 28.992188 L 308.398438 81.292969 L 276.054688 67.277344 Z M 298.714844 14.976562 " clip-rule="nonzero"/></clipPath><clipPath id="a84e1d0b97"><path d="M 298.714844 14.976562 L 331.058594 28.992188 L 308.398438 81.292969 L 276.054688 67.277344 Z M 298.714844 14.976562 " clip-rule="nonzero"/></clipPath><clipPath id="8a41e85c7c"><path d="M 302 27 L 329 27 L 329 67 L 302 67 Z M 302 27 " clip-rule="nonzero"/></clipPath><clipPath id="43ee676b6f"><path d="M 298.714844 14.976562 L 331.058594 28.992188 L 308.398438 81.292969 L 276.054688 67.277344 Z M 298.714844 14.976562 " clip-rule="nonzero"/></clipPath><clipPath id="7794ee82c7"><path d="M 298.714844 14.976562 L 331.058594 28.992188 L 308.398438 81.292969 L 276.054688 67.277344 Z M 298.714844 14.976562 " clip-rule="nonzero"/></clipPath><clipPath id="db343ddb6d"><path d="M 298.714844 14.976562 L 331.058594 28.992188 L 308.398438 81.292969 L 276.054688 67.277344 Z M 298.714844 14.976562 " clip-rule="nonzero"/></clipPath><clipPath id="1677348994"><path d="M 296 67 L 307 67 L 307 77 L 296 77 Z M 296 67 " clip-rule="nonzero"/></clipPath><clipPath id="4bce7b221e"><path d="M 298.714844 14.976562 L 331.058594 28.992188 L 308.398438 81.292969 L 276.054688 67.277344 Z M 298.714844 14.976562 " clip-rule="nonzero"/></clipPath><clipPath id="5744cce9e8"><path d="M 298.714844 14.976562 L 331.058594 28.992188 L 308.398438 81.292969 L 276.054688 67.277344 Z M 298.714844 14.976562 " clip-rule="nonzero"/></clipPath><clipPath id="0b16f1e0b0"><path d="M 298.714844 14.976562 L 331.058594 28.992188 L 308.398438 81.292969 L 276.054688 67.277344 Z M 298.714844 14.976562 " clip-rule="nonzero"/></clipPath><clipPath id="dc27f9f2f7"><path d="M 285 63 L 295 63 L 295 73 L 285 73 Z M 285 63 " clip-rule="nonzero"/></clipPath><clipPath id="f8b4e6da85"><path d="M 298.714844 14.976562 L 331.058594 28.992188 L 308.398438 81.292969 L 276.054688 67.277344 Z M 298.714844 14.976562 " clip-rule="nonzero"/></clipPath><clipPath id="37bb48f128"><path d="M 298.714844 14.976562 L 331.058594 28.992188 L 308.398438 81.292969 L 276.054688 67.277344 Z M 298.714844 14.976562 " clip-rule="nonzero"/></clipPath><clipPath id="bb5348076e"><path d="M 298.714844 14.976562 L 331.058594 28.992188 L 308.398438 81.292969 L 276.054688 67.277344 Z M 298.714844 14.976562 " clip-rule="nonzero"/></clipPath></defs><path fill="#eaa281" d="M 339.355469 165.996094 C 345.660156 159.863281 351.238281 153.128906 356.09375 145.796875 C 360.953125 138.460938 364.976562 130.695312 368.164062 122.5 C 368.652344 121.238281 369.128906 119.859375 368.753906 118.5625 C 367.953125 115.804688 364.246094 115.429688 361.378906 115.640625 C 355.558594 116.089844 334.855469 115.828125 325.414062 119.34375 C 320.617188 114.488281 314.519531 109.632812 306.894531 104.652344 C 299.601562 99.882812 289.355469 97.367188 278.449219 97.238281 C 273.714844 87.257812 264.210938 74.503906 261.523438 70.179688 C 259.933594 67.636719 257.332031 64.746094 254.519531 65.777344 C 253.195312 66.261719 252.328125 67.511719 251.570312 68.699219 C 247.351562 75.332031 243.773438 82.296875 240.832031 89.589844 C 237.894531 96.882812 235.644531 104.382812 234.082031 112.085938 C 231.859375 114.0625 229.867188 116.246094 228.109375 118.644531 C 227.230469 119.851562 226.40625 121.09375 225.640625 122.371094 C 224.324219 123.132812 222.957031 123.789062 221.535156 124.335938 C 216.324219 126.339844 210.710938 126.988281 205.164062 127.636719 C 208.203125 130.101562 210.71875 133.015625 212.707031 136.382812 C 209.976562 137.417969 207.625 139.015625 205.652344 141.175781 C 206.351562 141.058594 207.050781 141.050781 207.75 141.144531 C 208.453125 141.242188 209.125 141.4375 209.765625 141.734375 C 210.410156 142.03125 210.992188 142.414062 211.519531 142.886719 C 212.046875 143.359375 212.492188 143.898438 212.859375 144.503906 C 211.199219 146.898438 209.941406 149.488281 209.074219 152.269531 C 208.210938 155.050781 207.785156 157.898438 207.792969 160.808594 C 210.867188 158.820312 214.226562 157.644531 217.871094 157.277344 C 219.003906 170.847656 224.582031 184.046875 234.324219 193.59375 C 247.625 206.628906 266.710938 212.496094 285.324219 212.996094 C 295.886719 213.277344 306.847656 211.851562 315.894531 206.398438 C 316.03125 207.671875 316.105469 208.949219 316.125 210.230469 C 316.605469 209.523438 317.226562 208.976562 317.988281 208.582031 C 318.746094 208.1875 319.550781 207.992188 320.40625 208.003906 C 320.367188 209.363281 320.324219 210.722656 320.28125 212.082031 C 322.5625 210.152344 324.574219 207.972656 326.316406 205.542969 C 328.058594 203.113281 329.476562 200.511719 330.574219 197.730469 C 332.675781 199.273438 334.445312 201.132812 335.882812 203.308594 C 337.320312 205.484375 338.339844 207.839844 338.9375 210.378906 C 339.585938 204.476562 342.125 182.671875 336.777344 176.960938 C 337.53125 174.511719 338.160156 172.03125 338.667969 169.554688 C 338.925781 168.351562 339.15625 167.164062 339.355469 165.996094 Z M 339.355469 165.996094 " fill-opacity="1" fill-rule="nonzero"/><path fill="#eaa281" d="M 106.949219 306.3125 C 95.6875 304.050781 86.558594 299.089844 78.054688 291.265625 C 69.46875 283.367188 62.539062 273.863281 55.667969 264.429688 C 53.949219 267.300781 52.230469 270.167969 50.511719 273.039062 C 44.320312 264.375 38.863281 255.273438 34.140625 245.726562 C 29.421875 236.183594 25.496094 226.320312 22.367188 216.140625 C 10.335938 229.441406 4.875 247.921875 5.460938 265.855469 C 6.042969 283.789062 12.273438 301.207031 21.179688 316.785156 L 16.285156 321.796875 C 28.761719 331.753906 42.476562 339.523438 57.429688 345.105469 C 55.296875 346.171875 53.472656 347.628906 51.960938 349.476562 C 55.429688 354.746094 63.382812 353.449219 69.394531 351.503906 C 80.332031 347.960938 91.402344 344.179688 101.285156 338.1875 C 108.28125 333.949219 121.972656 324.679688 121.699219 315.160156 C 121.472656 307.503906 112.867188 307.503906 106.949219 306.3125 Z M 106.949219 306.3125 " fill-opacity="1" fill-rule="nonzero"/><g clip-path="url(#2e1aec7c00)"><path stroke-linecap="butt" transform="matrix(0.203923, 0, 0, 0.204021, -1.139371, -10.180286)" fill="none" stroke-linejoin="miter" d="M 1968.474459 632.538823 C 1968.474459 640.714288 1968.282904 648.870606 1967.880638 657.026924 C 1967.478371 665.202389 1966.88455 673.339561 1966.080017 681.476733 C 1965.275484 689.594759 1964.279396 697.712785 1963.072598 705.792518 C 1961.884954 713.872251 1960.4866 721.913692 1958.89669 729.935986 C 1957.287625 737.939134 1955.50616 745.903989 1953.513984 753.830552 C 1951.540963 761.757115 1949.357232 769.626239 1946.981945 777.457071 C 1944.606658 785.268756 1942.058972 793.023002 1939.300574 800.719809 C 1936.542177 808.416617 1933.611379 816.036839 1930.489027 823.580476 C 1927.347518 831.124113 1924.052766 838.591165 1920.547302 845.981632 C 1917.060994 853.372099 1913.383131 860.666834 1909.532867 867.865838 C 1905.682604 875.064842 1901.659941 882.168115 1897.464878 889.175656 C 1893.25066 896.183197 1888.883197 903.095007 1884.343334 909.891939 C 1879.803472 916.669724 1875.110365 923.351779 1870.244858 929.918955 C 1865.379351 936.486132 1860.341444 942.919284 1855.169449 949.237559 C 1849.978298 955.555834 1844.653058 961.740084 1839.155419 967.790311 C 1833.676935 973.840538 1828.045206 979.756741 1822.260234 985.538919 C 1816.494417 991.321098 1810.575355 996.950106 1804.522205 1002.425945 C 1798.469055 1007.920929 1792.281816 1013.243597 1785.960488 1018.432241 C 1779.658316 1023.620884 1773.2029 1028.637212 1766.651705 1033.500369 C 1760.081356 1038.382672 1753.415228 1043.073512 1746.615012 1047.611182 C 1739.814796 1052.148852 1732.918802 1056.533352 1725.907875 1060.726389 C 1718.916103 1064.919426 1711.809399 1068.959292 1704.587761 1072.807696 C 1697.385278 1076.6561 1690.087018 1080.332187 1682.712136 1083.816811 C 1675.318098 1087.320582 1667.866593 1090.613743 1660.300155 1093.753734 C 1652.752873 1096.874579 1645.148125 1099.823107 1637.447598 1102.561026 C 1629.747072 1105.318092 1622.008234 1107.883694 1614.173619 1110.257834 C 1606.358159 1112.631973 1598.485233 1114.795504 1590.573995 1116.786718 C 1582.643602 1118.777932 1574.674898 1120.558536 1566.667883 1122.166824 C 1558.641712 1123.755966 1550.596386 1125.153645 1542.512749 1126.340715 C 1534.429112 1127.546931 1526.326319 1128.542538 1518.204371 1129.346682 C 1510.063267 1130.150826 1501.922163 1130.744361 1493.761903 1131.146433 C 1485.601644 1131.548505 1477.441385 1131.759114 1469.26197 1131.759114 C 1461.10171 1131.759114 1452.941451 1131.548505 1444.781191 1131.146433 C 1436.620932 1130.744361 1428.460673 1130.150826 1420.338724 1129.346682 C 1412.216776 1128.542538 1404.094828 1127.546931 1396.01119 1126.340715 C 1387.946709 1125.153645 1379.901382 1123.755966 1371.875212 1122.166824 C 1363.868197 1120.558536 1355.899493 1118.777932 1347.9691 1116.786718 C 1340.038707 1114.795504 1332.16578 1112.631973 1324.350321 1110.257834 C 1316.534861 1107.883694 1308.776868 1105.318092 1301.095497 1102.561026 C 1293.39497 1099.823107 1285.771066 1096.874579 1278.223784 1093.753734 C 1270.676502 1090.613743 1263.224997 1087.320582 1255.830959 1083.816811 C 1248.436921 1080.332187 1241.157817 1076.6561 1233.936179 1072.807696 C 1226.733696 1068.959292 1219.626992 1064.919426 1212.616064 1060.726389 C 1205.624293 1056.533352 1198.709143 1052.148852 1191.928083 1047.611182 C 1185.127867 1043.073512 1178.461739 1038.382672 1171.891389 1033.500369 C 1165.32104 1028.637212 1158.884779 1023.620884 1152.582607 1018.432241 C 1146.261279 1013.243597 1140.07404 1007.920929 1134.02089 1002.425945 C 1127.96774 996.950106 1122.048678 991.321098 1116.282861 985.538919 C 1110.497888 979.756741 1104.86616 973.840538 1099.387676 967.790311 C 1093.890037 961.740084 1088.564797 955.555834 1083.373646 949.237559 C 1078.201651 942.919284 1073.163744 936.486132 1068.298237 929.918955 C 1063.43273 923.351779 1058.739623 916.669724 1054.199761 909.891939 C 1049.659898 903.095007 1045.292435 896.183197 1041.078217 889.175656 C 1036.883154 882.168115 1032.860491 875.064842 1029.010228 867.865838 C 1025.159964 860.666834 1021.482101 853.372099 1017.995793 845.981632 C 1014.490329 838.591165 1011.195577 831.124113 1008.054068 823.580476 C 1004.931716 816.036839 1002.000918 808.416617 999.242521 800.719809 C 996.484123 793.023002 993.936437 785.268756 991.56115 777.457071 C 989.185863 769.626239 987.002132 761.757115 985.029111 753.830552 C 983.036935 745.903989 981.25547 737.939134 979.646405 729.935986 C 978.056495 721.913692 976.658141 713.872251 975.470497 705.792518 C 974.263698 697.712785 973.26761 689.594759 972.463078 681.476733 C 971.658545 673.339561 971.064723 665.202389 970.662457 657.026924 C 970.260191 648.870606 970.068635 640.714288 970.068635 632.538823 C 970.068635 624.363358 970.260191 616.20704 970.662457 608.050722 C 971.064723 599.894404 971.658545 591.738085 972.463078 583.600913 C 973.26761 575.482887 974.263698 567.364862 975.470497 559.285128 C 976.658141 551.205395 978.056495 543.163955 979.646405 535.14166 C 981.25547 527.138512 983.036935 519.173657 985.029111 511.247094 C 987.002132 503.320531 989.185863 495.451407 991.56115 487.620576 C 993.936437 479.808891 996.484123 472.054644 999.242521 464.357837 C 1002.000918 456.661029 1004.931716 449.040807 1008.054068 441.49717 C 1011.195577 433.953533 1014.490329 426.486481 1017.995793 419.096014 C 1021.482101 411.705547 1025.159964 404.410812 1029.010228 397.211808 C 1032.860491 390.012804 1036.883154 382.909531 1041.078217 375.90199 C 1045.292435 368.894449 1049.659898 361.982639 1054.199761 355.185707 C 1058.739623 348.407922 1063.43273 341.725868 1068.298237 335.158691 C 1073.163744 328.591515 1078.201651 322.158362 1083.373646 315.840087 C 1088.564797 309.521813 1093.890037 303.337562 1099.387676 297.287335 C 1104.86616 291.237108 1110.497888 285.320906 1116.282861 279.538727 C 1122.048678 273.775695 1127.96774 268.12754 1134.02089 262.651702 C 1140.07404 257.156717 1146.261279 251.834049 1152.582607 246.645406 C 1158.884779 241.456762 1165.32104 236.440435 1171.891389 231.577278 C 1178.461739 226.694974 1185.127867 222.004134 1191.928083 217.466464 C 1198.709143 212.928794 1205.624293 208.544294 1212.616064 204.351257 C 1219.626992 200.15822 1226.733696 196.118354 1233.936179 192.26995 C 1241.157817 188.421546 1248.436921 184.745459 1255.830959 181.260835 C 1263.224997 177.757064 1270.676502 174.463903 1278.223784 171.323912 C 1285.771066 168.203067 1293.39497 165.273685 1301.095497 162.51662 C 1308.776868 159.759555 1316.534861 157.193952 1324.350321 154.819812 C 1332.16578 152.445673 1340.038707 150.282142 1347.9691 148.290929 C 1355.899493 146.299715 1363.868197 144.51911 1371.875212 142.929968 C 1379.901382 141.32168 1387.946709 139.924001 1396.01119 138.736931 C 1404.094828 137.530715 1412.216776 136.535108 1420.338724 135.730964 C 1428.460673 134.92682 1436.620932 134.333285 1444.781191 133.931213 C 1452.941451 133.529141 1461.10171 133.337678 1469.26197 133.337678 C 1477.441385 133.337678 1485.601644 133.529141 1493.761903 133.931213 C 1501.922163 134.333285 1510.063267 134.92682 1518.204371 135.730964 C 1526.326319 136.535108 1534.429112 137.530715 1542.512749 138.736931 C 1550.596386 139.924001 1558.641712 141.32168 1566.667883 142.929968 C 1574.674898 144.51911 1582.643602 146.299715 1590.573995 148.290929 C 1598.485233 150.282142 1606.358159 152.445673 1614.173619 154.819812 C 1622.008234 157.193952 1629.747072 159.759555 1637.447598 162.51662 C 1645.148125 165.273685 1652.752873 168.203067 1660.300155 171.323912 C 1667.866593 174.463903 1675.318098 177.757064 1682.712136 181.260835 C 1690.087018 184.745459 1697.385278 188.421546 1704.587761 192.26995 C 1711.809399 196.118354 1718.916103 200.15822 1725.907875 204.351257 C 1732.918802 208.544294 1739.814796 212.928794 1746.615012 217.466464 C 1753.415228 222.004134 1760.081356 226.694974 1766.651705 231.577278 C 1773.2029 236.440435 1779.658316 241.456762 1785.960488 246.645406 C 1792.281816 251.834049 1798.469055 257.156717 1804.522205 262.651702 C 1810.575355 268.12754 1816.494417 273.775695 1822.260234 279.538727 C 1828.045206 285.320906 1833.676935 291.237108 1839.155419 297.287335 C 1844.653058 303.337562 1849.978298 309.521813 1855.169449 315.840087 C 1860.341444 322.158362 1865.379351 328.591515 1870.244858 335.158691 C 1875.110365 341.725868 1879.803472 348.407922 1884.343334 355.185707 C 1888.883197 361.982639 1893.25066 368.894449 1897.464878 375.90199 C 1901.659941 382.909531 1905.682604 390.012804 1909.532867 397.211808 C 1913.383131 404.410812 1917.060994 411.705547 1920.547302 419.096014 C 1924.052766 426.486481 1927.347518 433.953533 1930.489027 441.49717 C 1933.611379 449.040807 1936.542177 456.661029 1939.300574 464.357837 C 1942.058972 472.054644 1944.606658 479.808891 1946.981945 487.620576 C 1949.357232 495.451407 1951.540963 503.320531 1953.513984 511.247094 C 1955.50616 519.173657 1957.287625 527.138512 1958.89669 535.14166 C 1960.4866 543.163955 1961.884954 551.205395 1963.072598 559.285128 C 1964.279396 567.364862 1965.275484 575.482887 1966.080017 583.600913 C 1966.88455 591.738085 1967.478371 599.894404 1967.880638 608.050722 C 1968.282904 616.20704 1968.474459 624.363358 1968.474459 632.538823 Z M 1968.474459 632.538823 " stroke="#ffffff" stroke-width="20" stroke-opacity="1" stroke-miterlimit="10"/></g><path fill="#ffffff" d="M 213.34375 191 C 213.34375 191 210.445312 195.347656 201.75 188.101562 C 193.054688 180.851562 185.808594 164.179688 185.085938 159.828125 C 184.359375 155.480469 180.738281 143.878906 172.769531 148.230469 C 164.796875 152.578125 156.828125 157.652344 159 164.179688 C 161.175781 170.703125 163.347656 180.125 164.796875 185.191406 C 166.246094 190.261719 177.847656 218.539062 177.847656 218.539062 C 177.847656 218.539062 151.765625 230.136719 143.792969 232.3125 C 135.820312 234.484375 129.300781 238.839844 120.605469 235.210938 C 111.910156 231.582031 100.316406 233.035156 93.800781 230.136719 C 87.28125 227.238281 83.652344 219.988281 83.652344 211.289062 C 83.652344 202.589844 88.726562 195.339844 84.378906 192.441406 C 80.035156 189.542969 69.886719 188.816406 69.886719 188.816406 C 69.886719 188.816406 62.640625 195.34375 61.917969 204.039062 C 61.195312 212.734375 60.46875 242.460938 60.46875 245.359375 C 60.46875 248.261719 62.640625 256.960938 70.613281 260.582031 C 78.585938 264.207031 80.03125 267.832031 85.105469 274.355469 C 90.175781 280.878906 96.695312 297.554688 98.144531 304.078125 C 99.59375 310.601562 117.285156 333.800781 124.945312 340.328125 C 137.261719 350.839844 168.476562 356.589844 177.839844 355.550781 C 200.664062 353.015625 196.316406 354.101562 219.5 341.777344 C 242.6875 329.453125 268.410156 285.957031 273.480469 272.183594 C 278.554688 258.410156 287.25 246.089844 287.972656 241.738281 C 288.695312 237.390625 288.699219 225.066406 288.699219 225.066406 Z M 213.34375 191 " fill-opacity="1" fill-rule="nonzero"/><path fill="#e85162" d="M 256.90625 203.632812 C 247.503906 200.484375 223.074219 181.582031 223.074219 181.582031 L 211.167969 191.035156 C 211.167969 191.035156 223.699219 206.78125 231.84375 211.824219 C 239.988281 216.863281 286.347656 234.503906 290.109375 234.503906 C 293.871094 234.503906 294.492188 217.492188 294.492188 217.492188 C 294.492188 217.492188 266.300781 206.773438 256.90625 203.632812 Z M 256.90625 203.632812 " fill-opacity="1" fill-rule="nonzero"/><path fill="#e85162" d="M 210.101562 276.671875 C 205.003906 270.382812 182.605469 253.070312 177.898438 245.207031 C 173.1875 237.339844 167.851562 219.957031 163.84375 218.609375 C 159.835938 217.261719 151.660156 220.570312 152.132812 222.691406 C 152.601562 224.808594 155.191406 233.148438 155.191406 233.148438 C 155.191406 233.148438 170.578125 262.410156 180.003906 271.453125 C 189.429688 280.5 214.644531 297.1875 223.128906 301.988281 C 231.617188 306.792969 246.855469 315.289062 249.6875 314.664062 C 252.519531 314.035156 261.324219 306.886719 260.699219 304.054688 C 260.074219 301.222656 215.203125 282.957031 210.101562 276.671875 Z M 210.101562 276.671875 " fill-opacity="1" fill-rule="nonzero"/><path fill="#3cc2a2" d="M 181.40625 230.03125 C 181.765625 228.640625 182.582031 227.417969 183.429688 226.261719 C 187.160156 221.203125 191.699219 217.019531 197.046875 213.714844 C 202.421875 210.398438 209.28125 208.160156 214.976562 210.910156 C 217.816406 212.28125 219.960938 214.714844 222.1875 216.949219 C 229.046875 223.832031 237.222656 229.21875 244.980469 235.070312 C 247.242188 236.773438 249.667969 238.871094 249.84375 241.699219 C 250 244.148438 248.394531 246.335938 246.871094 248.273438 L 240.910156 255.820312 C 237.074219 260.683594 232.566406 265.933594 226.410156 266.578125 C 220.097656 267.242188 214.507812 262.824219 209.710938 258.671875 C 203.953125 253.691406 198.363281 248.304688 192.242188 243.777344 C 188.695312 241.152344 178.335938 236.175781 181.40625 230.03125 Z M 181.40625 230.03125 " fill-opacity="1" fill-rule="nonzero"/><path fill="#e85162" d="M 88.09375 193.707031 C 87.601562 190.667969 78.203125 187.019531 78.203125 187.019531 C 78.203125 187.019531 70.289062 186.40625 67.320312 188.855469 C 64.351562 191.304688 61.878906 199.191406 60.386719 205.273438 C 58.894531 211.355469 60.386719 222.90625 60.386719 222.90625 L 88.085938 222.292969 C 88.085938 222.292969 86.601562 211.347656 86.601562 207.699219 C 86.601562 204.050781 88.585938 196.75 88.09375 193.707031 Z M 88.09375 193.707031 " fill-opacity="1" fill-rule="nonzero"/><path fill="#e85162" d="M 185.03125 151.128906 C 185.03125 148.410156 180.933594 144.601562 178.375 142.96875 C 175.816406 141.335938 165.066406 149.496094 161.484375 151.664062 C 157.898438 153.835938 157.386719 161.996094 157.898438 166.355469 C 158.410156 170.714844 161.996094 177.78125 161.996094 177.78125 L 187.078125 163.644531 C 187.078125 163.644531 185.03125 153.851562 185.03125 151.128906 Z M 185.03125 151.128906 " fill-opacity="1" fill-rule="nonzero"/><path fill="#ffffff" d="M 284.097656 205.183594 C 276.332031 215.140625 271.621094 228.195312 264.113281 238.621094 C 262.550781 240.800781 260.882812 243.132812 260.78125 245.816406 C 260.714844 247.625 261.378906 249.371094 262.085938 251.039062 C 263.835938 255.175781 260.378906 259.878906 262.769531 263.6875 C 263.6875 265.144531 264.878906 268.824219 266.40625 269.625 C 268.648438 270.800781 276.882812 267.261719 278.957031 265.792969 C 281.03125 264.328125 282.488281 262.167969 283.898438 260.058594 C 295.558594 242.632812 307.554688 224.355469 310.144531 203.554688 C 301.953125 202.308594 290.0625 197.523438 284.097656 205.183594 Z M 284.097656 205.183594 " fill-opacity="1" fill-rule="nonzero"/><path fill="#e85162" d="M 313.691406 196.246094 C 313.265625 195.472656 312.542969 194.917969 311.839844 194.382812 L 307.207031 190.875 C 305.273438 189.410156 303.300781 187.921875 301.019531 187.09375 C 298.738281 186.265625 296.058594 186.179688 293.992188 187.457031 C 292.667969 188.269531 291.707031 189.566406 290.84375 190.863281 C 288.113281 194.96875 283.5625 201.367188 281.570312 206.320312 C 279.246094 212.101562 300.914062 218.226562 306.398438 220.128906 C 309.253906 213.96875 312.644531 207.042969 313.90625 200.367188 C 314.164062 198.988281 314.371094 197.476562 313.691406 196.246094 Z M 313.691406 196.246094 " fill-opacity="1" fill-rule="nonzero"/><g clip-path="url(#a887d99222)"><path fill="#ffffff" d="M 182.648438 359.097656 C 201.105469 354.917969 210.015625 346.695312 215.15625 332.941406 C 220.296875 319.1875 218.554688 303.488281 212.644531 290.046875 C 209.457031 282.796875 204.703125 275.710938 197.480469 272.46875 C 195.90625 271.761719 194.015625 271.019531 193.59375 269.34375 C 193.324219 268.296875 193.742188 267.210938 194.167969 266.21875 C 196.351562 261.113281 198.914062 256.207031 201.851562 251.496094 C 203.949219 248.132812 206.28125 244.761719 206.996094 240.863281 C 208.191406 234.300781 203.855469 227.195312 197.472656 225.253906 C 196.355469 224.910156 195.15625 224.71875 194.019531 224.988281 C 191.992188 225.476562 190.609375 227.296875 189.40625 228.996094 C 183.234375 237.683594 177.066406 246.375 170.894531 255.0625 C 168.390625 258.59375 165.839844 262.203125 164.621094 266.371094 C 163.402344 270.535156 163.75 275.402344 166.585938 278.675781 C 167.082031 279.25 167.660156 279.789062 167.929688 280.5 C 168.804688 282.800781 166.128906 284.761719 163.933594 285.867188 C 155.347656 290.191406 152.714844 290.871094 144.949219 296.535156 C 137.992188 301.609375 132.082031 308.292969 130.496094 310.554688 C 121.625 323.15625 121.460938 324.34375 122.003906 327.578125 C 124.835938 344.492188 135.082031 349.507812 150.933594 355.085938 C 162.941406 359.300781 156.464844 358.453125 172.867188 359.980469 C 172.867188 359.921875 172.949219 359.957031 172.949219 359.894531 Z M 182.648438 359.097656 " fill-opacity="1" fill-rule="nonzero"/></g><path fill="#e85162" d="M 197.789062 261.105469 C 197.789062 261.105469 207.765625 245.578125 208.65625 243.117188 C 209.542969 240.660156 209.824219 234.242188 207.199219 231.160156 C 204.574219 228.074219 202.65625 225.433594 198.347656 224.007812 C 196.628906 223.441406 193.519531 222.578125 192.375 223.988281 C 191.226562 225.398438 176.21875 246.273438 176.21875 246.273438 Z M 197.789062 261.105469 " fill-opacity="1" fill-rule="nonzero"/><path fill="#decdcc" d="M 127.128906 237.5 C 119.664062 239.925781 112.199219 243.523438 107.511719 249.816406 C 103.007812 255.863281 98.683594 272.367188 97.421875 279.808594 C 101.4375 269.585938 101.023438 260.378906 114.8125 248.273438 C 122.433594 241.582031 142.136719 235.992188 150.132812 230.332031 C 147.417969 231.78125 140.34375 233.675781 137.449219 234.507812 C 134 235.503906 130.53125 236.402344 127.128906 237.5 Z M 127.128906 237.5 " fill-opacity="1" fill-rule="nonzero"/><path fill="#decdcc" d="M 186.902344 212.535156 C 189.835938 210.492188 192.851562 208.582031 195.945312 206.800781 C 198.800781 205.167969 201.726562 203.621094 204.378906 201.667969 C 206.652344 199.996094 209.066406 197.925781 210.539062 195.535156 C 203.929688 197.878906 197.667969 202.414062 192.542969 207.140625 C 190.636719 208.894531 188.816406 210.773438 186.902344 212.535156 Z M 186.902344 212.535156 " fill-opacity="1" fill-rule="nonzero"/><path fill="#decdcc" d="M 186.902344 212.535156 C 184.746094 214.03125 182.640625 215.59375 180.582031 217.226562 C 182.910156 215.976562 184.953125 214.324219 186.902344 212.535156 Z M 186.902344 212.535156 " fill-opacity="1" fill-rule="nonzero"/><path fill="#decdcc" d="M 257.015625 248.179688 C 257.625 241.652344 261.5625 234.773438 261.628906 228.59375 C 255.695312 235.734375 254.261719 246.417969 253.839844 255.363281 C 253.714844 257.980469 253.679688 260.644531 254.351562 263.175781 C 255.023438 265.707031 256.496094 268.128906 258.769531 269.425781 C 255.421875 267.515625 256.703125 251.488281 257.015625 248.179688 Z M 257.015625 248.179688 " fill-opacity="1" fill-rule="nonzero"/><path fill="#decdcc" d="M 158.101562 274.800781 C 157.050781 277.207031 156.1875 279.714844 155.839844 282.316406 C 154.996094 288.640625 157.453125 295.316406 162.195312 299.582031 C 159 293.402344 157.800781 290.398438 158.273438 283.257812 C 158.449219 280.675781 161.003906 273.058594 161.867188 270.609375 C 162.636719 268.445312 163.816406 266.453125 164.988281 264.476562 C 166.511719 261.914062 168.410156 259.289062 169.511719 256.5625 C 167.238281 259.890625 164.9375 263.277344 162.636719 266.617188 C 160.863281 269.203125 159.351562 271.929688 158.101562 274.800781 Z M 158.101562 274.800781 " fill-opacity="1" fill-rule="nonzero"/><path fill="#ffffff" d="M 273.921875 126.855469 C 274.253906 127.660156 274.503906 128.488281 274.675781 129.339844 C 274.84375 130.191406 274.929688 131.050781 274.929688 131.917969 C 274.929688 132.789062 274.84375 133.648438 274.675781 134.5 C 274.503906 135.351562 274.253906 136.179688 273.921875 136.980469 C 273.589844 137.785156 273.183594 138.546875 272.699219 139.269531 C 272.21875 139.992188 271.671875 140.660156 271.054688 141.273438 C 270.441406 141.886719 269.773438 142.4375 269.050781 142.917969 C 268.332031 143.402344 267.570312 143.808594 266.765625 144.140625 C 265.964844 144.472656 265.136719 144.722656 264.285156 144.894531 C 263.433594 145.0625 262.574219 145.148438 261.707031 145.148438 C 260.839844 145.148438 259.980469 145.0625 259.128906 144.894531 C 258.277344 144.722656 257.449219 144.472656 256.648438 144.140625 C 255.84375 143.808594 255.082031 143.402344 254.359375 142.917969 C 253.640625 142.4375 252.972656 141.886719 252.355469 141.273438 C 251.742188 140.660156 251.195312 139.992188 250.710938 139.269531 C 250.230469 138.546875 249.824219 137.785156 249.492188 136.980469 C 249.160156 136.179688 248.90625 135.351562 248.738281 134.5 C 248.570312 133.648438 248.484375 132.789062 248.484375 131.917969 C 248.484375 131.050781 248.570312 130.191406 248.738281 129.339844 C 248.90625 128.488281 249.160156 127.660156 249.492188 126.855469 C 249.824219 126.054688 250.230469 125.292969 250.710938 124.570312 C 251.195312 123.847656 251.742188 123.179688 252.355469 122.566406 C 252.972656 121.949219 253.640625 121.402344 254.359375 120.917969 C 255.082031 120.4375 255.84375 120.03125 256.648438 119.699219 C 257.449219 119.363281 258.277344 119.113281 259.128906 118.945312 C 259.980469 118.773438 260.839844 118.691406 261.707031 118.691406 C 262.574219 118.691406 263.433594 118.773438 264.285156 118.945312 C 265.136719 119.113281 265.964844 119.363281 266.765625 119.699219 C 267.570312 120.03125 268.332031 120.4375 269.050781 120.917969 C 269.773438 121.402344 270.441406 121.949219 271.054688 122.566406 C 271.671875 123.179688 272.21875 123.847656 272.699219 124.570312 C 273.183594 125.292969 273.589844 126.054688 273.921875 126.855469 Z M 273.921875 126.855469 " fill-opacity="1" fill-rule="nonzero"/><path fill="#ffffff" d="M 310.921875 145.023438 C 311.253906 145.828125 311.503906 146.652344 311.675781 147.507812 C 311.84375 148.359375 311.929688 149.21875 311.929688 150.085938 C 311.929688 150.957031 311.84375 151.816406 311.675781 152.667969 C 311.503906 153.519531 311.253906 154.347656 310.921875 155.148438 C 310.589844 155.953125 310.183594 156.714844 309.699219 157.4375 C 309.21875 158.160156 308.667969 158.828125 308.054688 159.441406 C 307.441406 160.054688 306.773438 160.601562 306.050781 161.085938 C 305.328125 161.570312 304.566406 161.976562 303.765625 162.308594 C 302.964844 162.640625 302.136719 162.890625 301.285156 163.0625 C 300.433594 163.230469 299.574219 163.316406 298.707031 163.316406 C 297.835938 163.316406 296.976562 163.230469 296.125 163.0625 C 295.273438 162.890625 294.449219 162.640625 293.644531 162.308594 C 292.84375 161.976562 292.082031 161.570312 291.359375 161.085938 C 290.636719 160.601562 289.96875 160.054688 289.355469 159.441406 C 288.742188 158.828125 288.195312 158.160156 287.710938 157.4375 C 287.230469 156.714844 286.820312 155.953125 286.488281 155.148438 C 286.15625 154.347656 285.90625 153.519531 285.738281 152.667969 C 285.566406 151.816406 285.484375 150.957031 285.484375 150.085938 C 285.484375 149.21875 285.566406 148.359375 285.738281 147.507812 C 285.90625 146.652344 286.15625 145.828125 286.488281 145.023438 C 286.820312 144.222656 287.230469 143.460938 287.710938 142.738281 C 288.195312 142.015625 288.742188 141.347656 289.355469 140.734375 C 289.96875 140.117188 290.636719 139.570312 291.359375 139.085938 C 292.082031 138.605469 292.84375 138.199219 293.644531 137.863281 C 294.449219 137.53125 295.273438 137.28125 296.125 137.113281 C 296.976562 136.941406 297.835938 136.859375 298.707031 136.859375 C 299.574219 136.859375 300.433594 136.941406 301.285156 137.113281 C 302.136719 137.28125 302.964844 137.53125 303.765625 137.863281 C 304.566406 138.199219 305.328125 138.605469 306.050781 139.085938 C 306.773438 139.570312 307.441406 140.117188 308.054688 140.734375 C 308.667969 141.347656 309.21875 142.015625 309.699219 142.738281 C 310.183594 143.460938 310.589844 144.222656 310.921875 145.023438 Z M 310.921875 145.023438 " fill-opacity="1" fill-rule="nonzero"/><path fill="#ffffff" d="M 276.019531 153.667969 C 275.203125 153.683594 273.632812 153.738281 272.214844 154.753906 C 272.109375 154.824219 272.019531 154.910156 271.925781 154.988281 C 272.03125 154.324219 272.015625 153.664062 271.878906 153.007812 C 271.515625 151.296875 270.398438 150.203125 269.804688 149.636719 C 265.777344 145.796875 257.183594 144.597656 251.832031 149.164062 C 251.160156 149.738281 246.621094 153.746094 247.777344 158.710938 C 249 163.957031 255.449219 165.402344 256.03125 165.523438 C 262.351562 166.839844 267.148438 162.113281 268.144531 161.128906 C 268.492188 160.78125 269.050781 160.234375 269.632812 159.53125 C 269.457031 160.773438 269.410156 162.019531 269.496094 163.269531 C 269.566406 164.667969 269.917969 171.390625 275.472656 174.695312 C 275.984375 175 281.722656 178.289062 286.160156 175.238281 C 290.363281 172.351562 289.714844 166.328125 289.601562 165.445312 C 288.730469 158.464844 281.578125 153.550781 276.019531 153.667969 Z M 276.019531 153.667969 " fill-opacity="1" fill-rule="nonzero"/><path fill="#0e5279" d="M 278.265625 151.5 L 270.863281 148.394531 C 270.527344 148.253906 270.179688 148.207031 269.824219 148.261719 C 269.464844 148.316406 269.144531 148.457031 268.863281 148.6875 C 268.585938 148.917969 268.382812 149.207031 268.265625 149.550781 C 268.144531 149.890625 268.121094 150.242188 268.199219 150.597656 L 269 154.402344 C 269.089844 154.820312 269.257812 155.199219 269.503906 155.546875 C 269.75 155.894531 270.054688 156.175781 270.421875 156.394531 C 270.785156 156.613281 271.179688 156.75 271.601562 156.804688 C 272.023438 156.859375 272.441406 156.828125 272.847656 156.710938 L 278.058594 155.179688 C 278.457031 155.066406 278.785156 154.847656 279.046875 154.523438 C 279.304688 154.199219 279.445312 153.828125 279.46875 153.414062 C 279.492188 153 279.390625 152.617188 279.171875 152.265625 C 278.949219 151.914062 278.648438 151.660156 278.265625 151.5 Z M 278.265625 151.5 " fill-opacity="1" fill-rule="nonzero"/><path fill="#0e5279" d="M 272.425781 134.96875 C 272.425781 134.332031 272.363281 133.707031 272.238281 133.082031 C 272.117188 132.460938 271.933594 131.855469 271.691406 131.269531 C 271.445312 130.683594 271.148438 130.125 270.796875 129.597656 C 270.445312 129.070312 270.042969 128.582031 269.59375 128.132812 C 269.148438 127.683594 268.660156 127.285156 268.132812 126.929688 C 267.601562 126.578125 267.046875 126.28125 266.460938 126.039062 C 265.875 125.796875 265.269531 125.613281 264.648438 125.488281 C 264.027344 125.363281 263.398438 125.300781 262.761719 125.300781 C 262.128906 125.300781 261.5 125.363281 260.878906 125.488281 C 260.257812 125.613281 259.652344 125.796875 259.066406 126.039062 C 258.480469 126.28125 257.921875 126.578125 257.394531 126.929688 C 256.867188 127.285156 256.378906 127.683594 255.929688 128.132812 C 255.484375 128.582031 255.082031 129.070312 254.730469 129.597656 C 254.378906 130.125 254.078125 130.683594 253.835938 131.269531 C 253.59375 131.855469 253.410156 132.460938 253.285156 133.082031 C 253.164062 133.707031 253.101562 134.332031 253.101562 134.96875 C 253.101562 135.601562 253.164062 136.230469 253.285156 136.855469 C 253.410156 137.476562 253.59375 138.082031 253.835938 138.667969 C 254.078125 139.253906 254.378906 139.8125 254.730469 140.339844 C 255.082031 140.867188 255.484375 141.355469 255.929688 141.804688 C 256.378906 142.253906 256.867188 142.652344 257.394531 143.007812 C 257.921875 143.359375 258.480469 143.65625 259.066406 143.898438 C 259.652344 144.140625 260.257812 144.324219 260.878906 144.449219 C 261.5 144.574219 262.128906 144.636719 262.761719 144.636719 C 263.398438 144.636719 264.027344 144.574219 264.648438 144.449219 C 265.269531 144.324219 265.875 144.144531 266.460938 143.898438 C 267.046875 143.65625 267.605469 143.359375 268.132812 143.007812 C 268.660156 142.652344 269.148438 142.253906 269.597656 141.804688 C 270.042969 141.355469 270.445312 140.867188 270.796875 140.339844 C 271.148438 139.8125 271.449219 139.253906 271.691406 138.667969 C 271.933594 138.082031 272.117188 137.476562 272.238281 136.855469 C 272.363281 136.230469 272.425781 135.601562 272.425781 134.96875 Z M 272.425781 134.96875 " fill-opacity="1" fill-rule="nonzero"/><path fill="#0e5279" d="M 305.300781 151.25 C 305.300781 151.882812 305.238281 152.511719 305.117188 153.136719 C 304.992188 153.757812 304.808594 154.363281 304.566406 154.949219 C 304.324219 155.535156 304.027344 156.089844 303.671875 156.617188 C 303.320312 157.144531 302.921875 157.632812 302.472656 158.082031 C 302.023438 158.53125 301.535156 158.933594 301.007812 159.285156 C 300.480469 159.636719 299.925781 159.933594 299.339844 160.179688 C 298.753906 160.421875 298.148438 160.605469 297.527344 160.726562 C 296.902344 160.851562 296.277344 160.914062 295.640625 160.914062 C 295.007812 160.914062 294.378906 160.851562 293.757812 160.726562 C 293.136719 160.605469 292.53125 160.421875 291.945312 160.179688 C 291.359375 159.933594 290.800781 159.636719 290.273438 159.285156 C 289.746094 158.933594 289.257812 158.53125 288.8125 158.082031 C 288.363281 157.632812 287.960938 157.144531 287.609375 156.617188 C 287.257812 156.089844 286.960938 155.535156 286.71875 154.949219 C 286.472656 154.363281 286.292969 153.757812 286.167969 153.136719 C 286.042969 152.511719 285.980469 151.882812 285.980469 151.25 C 285.980469 150.613281 286.042969 149.988281 286.167969 149.363281 C 286.292969 148.742188 286.472656 148.136719 286.71875 147.550781 C 286.960938 146.964844 287.257812 146.40625 287.609375 145.878906 C 287.960938 145.351562 288.363281 144.863281 288.8125 144.414062 C 289.257812 143.96875 289.746094 143.566406 290.273438 143.214844 C 290.800781 142.859375 291.359375 142.5625 291.945312 142.320312 C 292.53125 142.078125 293.136719 141.894531 293.757812 141.769531 C 294.378906 141.648438 295.007812 141.585938 295.640625 141.585938 C 296.277344 141.585938 296.902344 141.648438 297.527344 141.769531 C 298.148438 141.894531 298.753906 142.078125 299.339844 142.320312 C 299.925781 142.5625 300.480469 142.859375 301.007812 143.214844 C 301.535156 143.566406 302.023438 143.96875 302.472656 144.414062 C 302.921875 144.863281 303.320312 145.351562 303.671875 145.878906 C 304.027344 146.40625 304.324219 146.964844 304.566406 147.550781 C 304.808594 148.136719 304.992188 148.742188 305.117188 149.363281 C 305.238281 149.988281 305.300781 150.613281 305.300781 151.25 Z M 305.300781 151.25 " fill-opacity="1" fill-rule="nonzero"/><path fill="#e85162" d="M 366.042969 119.050781 C 366.042969 119.050781 344.308594 122.859375 341.589844 123.765625 C 338.875 124.667969 330.722656 127.207031 330.722656 127.207031 C 330.722656 127.207031 333.621094 132.824219 335.070312 136.8125 C 336.519531 140.800781 339.410156 162.183594 339.410156 162.183594 C 339.410156 162.183594 348.105469 154.210938 353.539062 145.691406 C 358.972656 137.175781 366.039062 124.304688 366.589844 122.859375 C 367.144531 121.410156 366.042969 119.050781 366.042969 119.050781 Z M 366.042969 119.050781 " fill-opacity="1" fill-rule="nonzero"/><path fill="#e85162" d="M 255.367188 68.128906 C 255.367188 68.128906 253.191406 69.394531 252.832031 70.300781 C 252.472656 71.210938 247.578125 78.636719 245.585938 83.53125 C 243.59375 88.421875 242.507812 90.417969 240.152344 98.027344 C 237.796875 105.640625 236.890625 109.808594 236.890625 109.808594 C 236.890625 109.808594 246.675781 104.734375 251.925781 102.378906 C 257.171875 100.023438 266.234375 98.027344 266.234375 98.027344 C 266.234375 98.027344 263.878906 86.976562 262.429688 82.625 C 260.984375 78.273438 255.367188 68.128906 255.367188 68.128906 Z M 255.367188 68.128906 " fill-opacity="1" fill-rule="nonzero"/><path stroke-linecap="round" transform="matrix(0.203923, 0, 0, 0.204021, -1.139371, -10.180286)" fill="none" stroke-linejoin="miter" d="M 1207.501536 756.377008 L 1114.501396 703.035452 Z M 1207.501536 756.377008 " stroke="#ffffff" stroke-width="6.96" stroke-opacity="1" stroke-miterlimit="10"/><path stroke-linecap="round" transform="matrix(0.203923, 0, 0, 0.204021, -1.139371, -10.180286)" fill="none" stroke-linejoin="miter" d="M 1200.164964 794.47812 L 1095.786435 763.556866 Z M 1200.164964 794.47812 " stroke="#ffffff" stroke-width="6.96" stroke-opacity="1" stroke-miterlimit="10"/><path stroke-linecap="round" transform="matrix(0.203923, 0, 0, 0.204021, -1.139371, -10.180286)" fill="none" stroke-linejoin="miter" d="M 1481.329959 884.791156 L 1582.969246 918.794962 Z M 1481.329959 884.791156 " stroke="#ffffff" stroke-width="6.96" stroke-opacity="1" stroke-miterlimit="10"/><path stroke-linecap="round" transform="matrix(0.203923, 0, 0, 0.204021, -1.139371, -10.180286)" fill="none" stroke-linejoin="miter" d="M 1457.749491 915.616679 L 1550.232431 972.998101 Z M 1457.749491 915.616679 " stroke="#ffffff" stroke-width="6.96" stroke-opacity="1" stroke-miterlimit="10"/><path fill="#e07b53" d="M 303.496094 103.597656 C 303.511719 103.351562 303.464844 103.121094 303.351562 102.90625 C 303.179688 102.675781 302.957031 102.507812 302.6875 102.402344 C 301.261719 101.695312 298.933594 100.285156 297.289062 100.390625 C 295.785156 100.484375 294.917969 102.761719 294.273438 103.839844 C 292.265625 107.144531 290.628906 110.621094 289.363281 114.273438 C 288.667969 116.308594 288.121094 118.382812 287.730469 120.496094 C 287.589844 121.269531 287.492188 122.140625 287.96875 122.777344 C 288.40625 123.355469 289.226562 123.570312 289.960938 123.457031 C 290.691406 123.339844 291.34375 122.945312 291.921875 122.5 C 293.609375 121.203125 294.839844 119.4375 296.042969 117.71875 C 298.367188 114.382812 300.703125 111.027344 302.429688 107.367188 C 302.988281 106.175781 303.496094 104.914062 303.496094 103.597656 Z M 303.496094 103.597656 " fill-opacity="1" fill-rule="nonzero"/><path fill="#e07b53" d="M 312.238281 109.195312 C 311.835938 108.652344 311.347656 108.203125 310.773438 107.847656 C 309.644531 107.074219 307.421875 105.460938 306.191406 106.355469 C 304.84375 107.339844 303.722656 109.316406 302.824219 110.695312 C 300.847656 113.746094 299.414062 117.03125 298.53125 120.558594 C 298.308594 121.449219 298.15625 122.488281 298.734375 123.195312 C 299.15625 123.652344 299.679688 123.878906 300.300781 123.875 C 301.597656 123.921875 302.78125 123.183594 303.832031 122.421875 C 306.320312 120.613281 308.554688 118.535156 310.535156 116.179688 C 311.367188 115.191406 312.164062 114.140625 312.574219 112.914062 C 312.980469 111.691406 312.960938 110.261719 312.238281 109.195312 Z M 312.238281 109.195312 " fill-opacity="1" fill-rule="nonzero"/><path fill="#e07b53" d="M 289.691406 98.753906 C 287.996094 98.492188 285.96875 97.636719 284.59375 99.59375 C 284.066406 100.347656 283.835938 101.363281 283.621094 102.335938 C 282.703125 106.5625 281.785156 110.828125 281.617188 115.15625 C 281.578125 116.191406 281.785156 117.535156 282.5625 117.582031 C 282.917969 117.601562 283.25 117.3125 283.550781 117.027344 C 286.9375 113.761719 291.484375 106.347656 292.867188 101.113281 C 293.472656 98.808594 292.046875 99.117188 289.691406 98.753906 Z M 289.691406 98.753906 " fill-opacity="1" fill-rule="nonzero"/><g clip-path="url(#8bde1acc6f)"><g clip-path="url(#d090bc374d)"><g clip-path="url(#c40e474575)"><g clip-path="url(#8d052693cb)"><path fill="#f9b6a4" d="M 204.703125 75.894531 C 206.070312 74.964844 207.082031 73.636719 207.03125 71.953125 C 207 70.769531 206.640625 69.515625 206.109375 68.453125 C 204.84375 65.917969 203.40625 63.46875 202.015625 60.996094 C 200.140625 57.652344 198.253906 54.320312 196.332031 50.933594 C 196.167969 50.648438 195.988281 50.371094 195.78125 50.113281 C 195.75 50.070312 195.71875 50.03125 195.6875 49.992188 C 194.222656 48.273438 192.804688 46.511719 191.265625 44.855469 C 190.617188 44.160156 189.765625 43.613281 188.929688 43.136719 C 186.902344 41.972656 184.746094 42.386719 182.695312 44.089844 C 181.050781 45.457031 180.777344 47.335938 180.574219 49.234375 C 180.511719 49.800781 180.773438 50.441406 181.011719 50.992188 C 181.542969 52.226562 181.96875 53.566406 182.769531 54.609375 C 184.996094 57.511719 187.3125 60.351562 189.738281 63.09375 C 193.386719 67.226562 196.808594 71.570312 200.941406 75.269531 C 202.160156 76.363281 203.507812 76.710938 204.707031 75.894531 Z M 204.703125 75.894531 " fill-opacity="1" fill-rule="nonzero"/></g></g></g></g><g clip-path="url(#4c7bfe8d28)"><g clip-path="url(#74faba56f3)"><g clip-path="url(#2dc3568c45)"><g clip-path="url(#6dc691c8fb)"><path fill="#f9b6a4" d="M 209.105469 30.113281 C 206.589844 26.550781 201.015625 26.878906 199.074219 30.757812 C 197.894531 33.117188 198.121094 35.480469 199.316406 37.753906 C 202.035156 42.9375 204.589844 48.195312 206.886719 53.582031 C 208.046875 56.304688 209.292969 58.988281 210.53125 61.753906 C 211.28125 63.234375 211.929688 64.691406 212.746094 66.046875 C 213.21875 66.828125 213.875 67.566406 214.609375 68.113281 C 215.988281 69.136719 217.828125 68.808594 218.796875 67.515625 C 219.613281 66.425781 219.910156 65.21875 219.59375 63.890625 C 219.367188 62.949219 219.144531 62.007812 218.855469 61.082031 C 218.050781 58.503906 217.125 55.964844 216.410156 53.363281 C 215 48.253906 213.746094 43.105469 212.34375 37.992188 C 211.589844 35.242188 210.789062 32.496094 209.105469 30.113281 Z M 209.105469 30.113281 " fill-opacity="1" fill-rule="nonzero"/></g></g></g></g><g clip-path="url(#d59d1acf20)"><g clip-path="url(#4134e4fbcd)"><g clip-path="url(#8f5a51b4d5)"><g clip-path="url(#adf5a958d4)"><path fill="#f9b6a4" d="M 219.847656 69.527344 C 217.707031 70.890625 216.835938 72.898438 216.960938 75.335938 C 217.113281 78.226562 220.367188 80.210938 222.8125 78.546875 C 223.515625 78.066406 224.003906 77.261719 224.5625 76.585938 C 225.882812 74.984375 226.109375 73.191406 225.234375 71.535156 C 224.785156 70.683594 224.085938 69.96875 223.21875 69.546875 C 222.035156 68.972656 220.753906 68.949219 219.84375 69.527344 Z M 219.847656 69.527344 " fill-opacity="1" fill-rule="nonzero"/></g></g></g></g><g clip-path="url(#d2bb2a0b3f)"><g clip-path="url(#81811bc8e4)"><g clip-path="url(#276b911b3b)"><g clip-path="url(#96eab7351c)"><path fill="#f9b6a4" d="M 211.636719 76.117188 C 211.007812 76.0625 210.367188 76.179688 209.699219 76.289062 C 209.082031 76.394531 208.480469 76.628906 207.992188 77.027344 C 207.144531 77.710938 206.546875 78.585938 206.132812 79.585938 C 205.734375 80.558594 206.089844 81.53125 206.339844 82.507812 C 206.875 84.574219 209.871094 86.367188 212.625 84.542969 C 214.183594 83.511719 214.621094 81.945312 214.863281 80.269531 C 215.195312 78.003906 213.917969 76.304688 211.636719 76.117188 Z M 211.636719 76.117188 " fill-opacity="1" fill-rule="nonzero"/></g></g></g></g><g clip-path="url(#70bd015d73)"><g clip-path="url(#5905ae4a58)"><g clip-path="url(#8a0c0996b6)"><g clip-path="url(#a84e1d0b97)"><path fill="#f9b6a4" d="M 289.945312 60.566406 C 291.53125 61.027344 293.199219 60.964844 294.464844 59.855469 C 295.355469 59.078125 296.097656 58.003906 296.582031 56.917969 C 297.734375 54.332031 298.707031 51.660156 299.730469 49.019531 C 301.117188 45.445312 302.488281 41.867188 303.878906 38.230469 C 303.996094 37.925781 304.097656 37.609375 304.167969 37.285156 C 304.175781 37.234375 304.1875 37.183594 304.195312 37.132812 C 304.59375 34.910156 305.050781 32.695312 305.351562 30.457031 C 305.476562 29.515625 305.355469 28.511719 305.191406 27.558594 C 304.796875 25.253906 303.109375 23.855469 300.492188 23.355469 C 298.390625 22.953125 296.765625 23.9375 295.171875 24.988281 C 294.695312 25.300781 294.367188 25.910156 294.089844 26.445312 C 293.476562 27.640625 292.714844 28.820312 292.421875 30.101562 C 291.597656 33.667969 290.878906 37.261719 290.304688 40.875 C 289.4375 46.320312 288.257812 51.722656 288.03125 57.265625 C 287.964844 58.902344 288.550781 60.164062 289.941406 60.570312 Z M 289.945312 60.566406 " fill-opacity="1" fill-rule="nonzero"/></g></g></g></g><g clip-path="url(#8a41e85c7c)"><g clip-path="url(#43ee676b6f)"><g clip-path="url(#7794ee82c7)"><g clip-path="url(#db343ddb6d)"><path fill="#f9b6a4" d="M 328.074219 34.847656 C 329.222656 30.640625 325.421875 26.550781 321.199219 27.515625 C 318.621094 28.105469 316.945312 29.785156 315.949219 32.152344 C 313.679688 37.546875 311.246094 42.863281 308.546875 48.058594 C 307.183594 50.6875 305.910156 53.355469 304.5625 56.074219 C 303.894531 57.59375 303.183594 59.019531 302.65625 60.507812 C 302.351562 61.371094 302.203125 62.347656 302.246094 63.261719 C 302.332031 64.976562 303.757812 66.1875 305.371094 66.113281 C 306.730469 66.046875 307.851562 65.515625 308.671875 64.421875 C 309.253906 63.648438 309.84375 62.878906 310.371094 62.066406 C 311.851562 59.808594 313.222656 57.476562 314.773438 55.269531 C 317.820312 50.9375 320.996094 46.6875 324.050781 42.355469 C 325.691406 40.027344 327.304688 37.664062 328.074219 34.847656 Z M 328.074219 34.847656 " fill-opacity="1" fill-rule="nonzero"/></g></g></g></g><g clip-path="url(#1677348994)"><g clip-path="url(#4bce7b221e)"><g clip-path="url(#5744cce9e8)"><g clip-path="url(#0b16f1e0b0)"><path fill="#f9b6a4" d="M 304.484375 68.203125 C 302.074219 67.417969 299.96875 68.023438 298.171875 69.671875 C 296.035156 71.625 296.574219 75.398438 299.414062 76.226562 C 300.230469 76.464844 301.160156 76.332031 302.039062 76.332031 C 304.113281 76.332031 305.640625 75.367188 306.363281 73.636719 C 306.734375 72.75 306.84375 71.757812 306.617188 70.820312 C 306.308594 69.539062 305.511719 68.539062 304.484375 68.203125 Z M 304.484375 68.203125 " fill-opacity="1" fill-rule="nonzero"/></g></g></g></g><g clip-path="url(#dc27f9f2f7)"><g clip-path="url(#f8b4e6da85)"><g clip-path="url(#37bb48f128)"><g clip-path="url(#bb5348076e)"><path fill="#f9b6a4" d="M 294.179688 66.058594 C 293.820312 65.539062 293.324219 65.117188 292.816406 64.675781 C 292.339844 64.261719 291.777344 63.949219 291.160156 63.824219 C 290.09375 63.605469 289.039062 63.703125 288.003906 64.019531 C 287 64.328125 286.472656 65.222656 285.878906 66.035156 C 284.625 67.761719 285.148438 71.210938 288.308594 72.179688 C 290.09375 72.726562 291.582031 72.066406 293.027344 71.191406 C 294.988281 70.003906 295.484375 67.9375 294.179688 66.058594 Z M 294.179688 66.058594 " fill-opacity="1" fill-rule="nonzero"/></g></g></g></g></svg>